<svg id="图层_1" data-name="图层 1" xmlns="http://www.w3.org/2000/svg" xmlns:xlink="http://www.w3.org/1999/xlink" viewBox="0 0 67.1 67.1"><defs><linearGradient id="未命名的渐变_59" x1="27.36" y1="34.16" x2="41.61" y2="34.16" gradientUnits="userSpaceOnUse"><stop offset="0" stop-color="#273129"/><stop offset="0.48" stop-color="#485e31"/><stop offset="0.99" stop-color="#2c392a"/></linearGradient></defs><rect x="0.5" y="0.5" width="66.1" height="66.1" rx="8.69" style="fill:#fff;stroke:#444;stroke-miterlimit:10"/><path d="M27.36,60.54V15.68A2.73,2.73,0,0,1,27.89,14l3.46-4.59a3.78,3.78,0,0,1,6.27,0L41.08,14a2.73,2.73,0,0,1,.53,1.64V60.54Z" style="fill:url(#未命名的渐变_59)"/><path d="M34.49,7.91a3.81,3.81,0,0,1,3,1.61L41,14.11a2.59,2.59,0,0,1,.51,1.57V60.41h-14V15.68a2.65,2.65,0,0,1,.5-1.57l3.46-4.59a3.83,3.83,0,0,1,3-1.61m0-.25a4.07,4.07,0,0,0-3.24,1.71L27.79,14a2.87,2.87,0,0,0-.55,1.72v45h14.5v-45A2.88,2.88,0,0,0,41.18,14L37.72,9.37a4.07,4.07,0,0,0-3.23-1.71Z"/><rect x="40" y="18.28" width="2.2" height="11.21" style="fill:#5e8952;stroke:#020202;stroke-miterlimit:10;stroke-width:0.25px"/><line x1="27.49" y1="15.68" x2="41.49" y2="15.68" style="fill:#bcbcbc;stroke:#020202;stroke-miterlimit:10;stroke-width:0.25px"/><line x1="27.49" y1="21.73" x2="40" y2="21.73" style="fill:#bcbcbc;stroke:#020202;stroke-miterlimit:10;stroke-width:0.25px"/><line x1="27.49" y1="26.34" x2="40" y2="26.34" style="fill:#bcbcbc;stroke:#020202;stroke-miterlimit:10;stroke-width:0.25px"/><line x1="27.49" y1="50.7" x2="41.31" y2="50.7" style="fill:#bcbcbc;stroke:#020202;stroke-miterlimit:10;stroke-width:0.25px"/><rect x="27.97" y="30.5" width="1.59" height="2.97" style="fill:#5e8952;stroke:#020202;stroke-miterlimit:10;stroke-width:0.25px"/><rect x="31.8" y="30.93" width="1.59" height="2.54" style="fill:#5e8952;stroke:#020202;stroke-miterlimit:10;stroke-width:0.25px"/><rect x="35.28" y="30.95" width="1.59" height="2.54" style="fill:#5e8952;stroke:#020202;stroke-miterlimit:10;stroke-width:0.25px"/></svg>