<svg id="图层_1" data-name="图层 1" xmlns="http://www.w3.org/2000/svg" xmlns:xlink="http://www.w3.org/1999/xlink" viewBox="0 0 67.1 67.1"><defs><linearGradient id="未命名的渐变_13" x1="42.64" y1="11.76" x2="28.05" y2="53.3" gradientUnits="userSpaceOnUse"><stop offset="0" stop-color="#fff"/><stop offset="0.1" stop-color="#bcbcbc"/><stop offset="0.93" stop-color="#9e9e9e"/><stop offset="1" stop-color="#838383"/></linearGradient><linearGradient id="未命名的渐变_15" x1="23.59" y1="31.53" x2="29.04" y2="31.53" gradientUnits="userSpaceOnUse"><stop offset="0.05" stop-color="#595757"/><stop offset="0.97" stop-color="#dcdddd"/></linearGradient><linearGradient id="未命名的渐变_15-2" x1="26.67" y1="22.52" x2="31.82" y2="24.31" xlink:href="#未命名的渐变_15"/><linearGradient id="未命名的渐变_15-3" x1="20.87" y1="39.49" x2="26.32" y2="39.49" xlink:href="#未命名的渐变_15"/></defs><rect x="0.5" y="0.5" width="66.1" height="66.1" rx="8.69" style="fill:#fff;stroke:#444;stroke-miterlimit:10"/><polygon points="17.06 50.13 30.63 10.28 52.34 17.94 38.86 58.18 17.06 50.13" style="fill:url(#未命名的渐变_13)"/><path d="M30.94,10.92l20.77,7.33L38.55,57.53,17.69,49.82l13.25-38.9m-.62-1.28-.33.95L16.74,49.5l-.31.93.91.33,20.87,7.71,1,.36.33-1L52.66,18.56l.31-.93L52,17.3,31.27,10l-.95-.33Z"/><polyline points="24.67 29.32 29.04 30.81 28.1 33.74 23.59 32.24" style="stroke:#000;stroke-miterlimit:10;fill:url(#未命名的渐变_15)"/><polyline points="27.4 21.15 31.77 22.63 30.83 25.57 26.32 24.06" style="stroke:#000;stroke-miterlimit:10;fill:url(#未命名的渐变_15-2)"/><polyline points="21.95 37.28 26.32 38.76 25.38 41.69 20.87 40.19" style="stroke:#000;stroke-miterlimit:10;fill:url(#未命名的渐变_15-3)"/></svg>