<svg id="图层_1" data-name="图层 1" xmlns="http://www.w3.org/2000/svg" xmlns:xlink="http://www.w3.org/1999/xlink" viewBox="0 0 67.1 67.1"><defs><linearGradient id="未命名的渐变_13" x1="42.48" y1="13.26" x2="27.9" y2="54.8" gradientUnits="userSpaceOnUse"><stop offset="0" stop-color="#fff"/><stop offset="0.1" stop-color="#bcbcbc"/><stop offset="0.93" stop-color="#9e9e9e"/><stop offset="1" stop-color="#838383"/></linearGradient><linearGradient id="未命名的渐变_15" x1="23.44" y1="33.04" x2="28.89" y2="33.04" gradientUnits="userSpaceOnUse"><stop offset="0.05" stop-color="#595757"/><stop offset="0.97" stop-color="#dcdddd"/></linearGradient><linearGradient id="未命名的渐变_15-2" x1="26.52" y1="24.02" x2="31.67" y2="25.81" xlink:href="#未命名的渐变_15"/><linearGradient id="未命名的渐变_15-3" x1="20.72" y1="40.99" x2="26.17" y2="40.99" xlink:href="#未命名的渐变_15"/><linearGradient id="未命名的渐变_10" x1="40.63" y1="17.71" x2="40.41" y2="18.32" gradientUnits="userSpaceOnUse"><stop offset="0.07" stop-color="#fff"/><stop offset="0.17" stop-color="#bcbcbc"/><stop offset="0.63" stop-color="#9e9e9e"/><stop offset="0.69" stop-color="#838383"/></linearGradient><linearGradient id="未命名的渐变_10-2" x1="39.94" y1="19.85" x2="39.71" y2="20.46" xlink:href="#未命名的渐变_10"/><linearGradient id="未命名的渐变_10-3" x1="39.24" y1="21.99" x2="39.01" y2="22.6" xlink:href="#未命名的渐变_10"/><linearGradient id="未命名的渐变_10-4" x1="38.54" y1="24.14" x2="38.32" y2="24.74" xlink:href="#未命名的渐变_10"/><linearGradient id="未命名的渐变_10-5" x1="37.85" y1="26.28" x2="37.62" y2="26.88" xlink:href="#未命名的渐变_10"/><linearGradient id="未命名的渐变_10-6" x1="37.15" y1="28.42" x2="36.92" y2="29.02" xlink:href="#未命名的渐变_10"/><linearGradient id="未命名的渐变_10-7" x1="36.45" y1="30.56" x2="36.23" y2="31.17" xlink:href="#未命名的渐变_10"/><linearGradient id="未命名的渐变_10-8" x1="35.75" y1="32.7" x2="35.53" y2="33.31" xlink:href="#未命名的渐变_10"/><linearGradient id="未命名的渐变_10-9" x1="35.06" y1="34.84" x2="34.83" y2="35.45" xlink:href="#未命名的渐变_10"/><linearGradient id="未命名的渐变_10-10" x1="34.36" y1="36.98" x2="34.14" y2="37.59" xlink:href="#未命名的渐变_10"/><linearGradient id="未命名的渐变_10-11" x1="33.66" y1="39.13" x2="33.44" y2="39.73" xlink:href="#未命名的渐变_10"/><linearGradient id="未命名的渐变_10-12" x1="32.97" y1="41.27" x2="32.74" y2="41.87" xlink:href="#未命名的渐变_10"/><linearGradient id="未命名的渐变_10-13" x1="34.26" y1="44.16" x2="34.08" y2="44.64" xlink:href="#未命名的渐变_10"/><linearGradient id="未命名的渐变_10-14" x1="31.57" y1="45.55" x2="31.35" y2="46.16" xlink:href="#未命名的渐变_10"/><linearGradient id="未命名的渐变_10-15" x1="30.88" y1="47.69" x2="30.65" y2="48.3" xlink:href="#未命名的渐变_10"/><linearGradient id="未命名的渐变_10-16" x1="30.18" y1="49.83" x2="29.96" y2="50.44" xlink:href="#未命名的渐变_10"/><linearGradient id="未命名的渐变_10-17" x1="29.48" y1="51.97" x2="29.26" y2="52.58" xlink:href="#未命名的渐变_10"/></defs><rect x="0.5" y="0.5" width="66.1" height="66.1" rx="8.69" style="fill:#fff;stroke:#444;stroke-miterlimit:10"/><polygon points="16.91 51.63 30.48 11.78 52.19 19.44 38.71 59.68 16.91 51.63" style="fill:url(#未命名的渐变_13)"/><path d="M30.79,12.42l20.77,7.33L38.4,59l-20.86-7.7L30.79,12.42m-.62-1.28-.33,1L16.59,51l-.31.93.91.33L38.06,60l1,.36.33-1L52.51,20.07l.31-.94-.93-.32L31.12,11.47l-.95-.33Z"/><polyline points="24.52 30.83 28.89 32.31 27.95 35.24 23.44 33.74" style="stroke:#000;stroke-miterlimit:10;fill:url(#未命名的渐变_15)"/><polyline points="27.25 22.65 31.62 24.13 30.68 27.07 26.17 25.56" style="stroke:#000;stroke-miterlimit:10;fill:url(#未命名的渐变_15-2)"/><polyline points="21.8 38.78 26.17 40.26 25.23 43.2 20.71 41.69" style="stroke:#000;stroke-miterlimit:10;fill:url(#未命名的渐变_15-3)"/><line x1="30.14" y1="14.33" x2="50.95" y2="21.58" style="stroke:#000;stroke-miterlimit:10;stroke-width:0.25px;fill:url(#未命名的渐变_10)"/><line x1="29.44" y1="16.47" x2="50.25" y2="23.72" style="stroke:#000;stroke-miterlimit:10;stroke-width:0.25px;fill:url(#未命名的渐变_10-2)"/><line x1="28.75" y1="18.61" x2="49.55" y2="25.86" style="stroke:#000;stroke-miterlimit:10;stroke-width:0.25px;fill:url(#未命名的渐变_10-3)"/><line x1="28.05" y1="20.75" x2="48.86" y2="28.01" style="stroke:#000;stroke-miterlimit:10;stroke-width:0.25px;fill:url(#未命名的渐变_10-4)"/><line x1="27.35" y1="22.89" x2="48.16" y2="30.15" style="stroke:#000;stroke-miterlimit:10;stroke-width:0.25px;fill:url(#未命名的渐变_10-5)"/><line x1="26.66" y1="25.03" x2="47.46" y2="32.29" style="stroke:#000;stroke-miterlimit:10;stroke-width:0.25px;fill:url(#未命名的渐变_10-6)"/><line x1="25.96" y1="27.18" x2="46.77" y2="34.43" style="stroke:#000;stroke-miterlimit:10;stroke-width:0.25px;fill:url(#未命名的渐变_10-7)"/><line x1="25.26" y1="29.32" x2="46.07" y2="36.57" style="stroke:#000;stroke-miterlimit:10;stroke-width:0.25px;fill:url(#未命名的渐变_10-8)"/><line x1="24.56" y1="31.46" x2="45.37" y2="38.71" style="stroke:#000;stroke-miterlimit:10;stroke-width:0.25px;fill:url(#未命名的渐变_10-9)"/><line x1="23.87" y1="33.6" x2="44.67" y2="40.85" style="stroke:#000;stroke-miterlimit:10;stroke-width:0.25px;fill:url(#未命名的渐变_10-10)"/><line x1="23.17" y1="35.74" x2="43.98" y2="43" style="stroke:#000;stroke-miterlimit:10;stroke-width:0.25px;fill:url(#未命名的渐变_10-11)"/><line x1="22.47" y1="37.88" x2="43.28" y2="45.14" style="stroke:#000;stroke-miterlimit:10;stroke-width:0.25px;fill:url(#未命名的渐变_10-12)"/><line x1="25.79" y1="41.42" x2="42.58" y2="47.28" style="stroke:#000;stroke-miterlimit:10;stroke-width:0.25px;fill:url(#未命名的渐变_10-13)"/><line x1="21.08" y1="42.17" x2="41.89" y2="49.42" style="stroke:#000;stroke-miterlimit:10;stroke-width:0.25px;fill:url(#未命名的渐变_10-14)"/><line x1="20.38" y1="44.31" x2="41.19" y2="51.56" style="stroke:#000;stroke-miterlimit:10;stroke-width:0.25px;fill:url(#未命名的渐变_10-15)"/><line x1="19.69" y1="46.45" x2="40.49" y2="53.7" style="stroke:#000;stroke-miterlimit:10;stroke-width:0.25px;fill:url(#未命名的渐变_10-16)"/><line x1="18.99" y1="48.59" x2="39.8" y2="55.85" style="stroke:#000;stroke-miterlimit:10;stroke-width:0.25px;fill:url(#未命名的渐变_10-17)"/></svg>