<svg id="图层_1" data-name="图层 1" xmlns="http://www.w3.org/2000/svg" xmlns:xlink="http://www.w3.org/1999/xlink" viewBox="0 0 67.1 67.1"><defs><linearGradient id="未命名的渐变_18" x1="30.4" y1="55.43" x2="30.4" y2="9.76" gradientUnits="userSpaceOnUse"><stop offset="0.06" stop-color="#3e3a39"/><stop offset="0.56" stop-color="#898989"/><stop offset="0.99" stop-color="#3e3a39"/></linearGradient><linearGradient id="未命名的渐变_17" x1="40.11" y1="28.49" x2="40.11" y2="13.82" gradientUnits="userSpaceOnUse"><stop offset="0.01" stop-color="#9e9e9e"/><stop offset="0.13" stop-color="#bcbcbc"/><stop offset="0.56" stop-color="#fff"/><stop offset="0.99" stop-color="#838383"/></linearGradient><linearGradient id="未命名的渐变_17-2" x1="40.11" y1="52.34" x2="40.11" y2="37.67" xlink:href="#未命名的渐变_17"/><linearGradient id="未命名的渐变_17-3" x1="40.11" y1="40.69" x2="40.11" y2="26.02" xlink:href="#未命名的渐变_17"/></defs><rect x="0.5" y="0.5" width="66.1" height="66.1" rx="8.69" style="fill:#fff;stroke:#444;stroke-miterlimit:10"/><polygon points="25.09 59.55 25.09 6.71 30.28 6.71 35.71 11.7 35.71 54.78 31.78 59.55 25.09 59.55" style="fill:url(#未命名的渐变_18)"/><path d="M30.09,7.21l5.12,4.71V54.6l-3.67,4.46H25.59V7.21h4.5m.39-1H24.59V60.06H32l.3-.37L36,55.24l.23-.28V11.48l-.32-.3L30.76,6.47l-.28-.26Z"/><polygon points="35.55 26.12 35.55 17.18 44.66 12.84 44.66 29.81 35.55 26.12" style="fill:url(#未命名的渐变_17)"/><path d="M44.16,13.63V29.07l-8.11-3.29V17.5l8.11-3.87m1-1.58-1.43.68L35.62,16.6l-.57.27v9.58l.62.26L43.79,30l1.37.56V12.05Z"/><polygon points="35.55 49.97 35.55 41.03 44.66 36.69 44.66 53.66 35.55 49.97" style="fill:url(#未命名的渐变_17-2)"/><path d="M44.16,37.48V52.92l-8.11-3.29V41.35l8.11-3.87m1-1.59-1.43.69-8.11,3.86-.57.28V50.3l.62.26,8.12,3.29,1.37.55V35.89Z"/><polygon points="35.55 38.32 35.55 29.38 44.66 25.04 44.66 42.01 35.55 38.32" style="fill:url(#未命名的渐变_17-3)"/><path d="M44.16,25.83V41.27L36.05,38V29.7l8.11-3.87m1-1.58-1.43.68L35.62,28.8l-.57.27v9.58l.62.26,8.12,3.29,1.37.56V24.25Z"/></svg>