<svg id="图层_1" data-name="图层 1" xmlns="http://www.w3.org/2000/svg" xmlns:xlink="http://www.w3.org/1999/xlink" viewBox="0 0 67.1 67.1"><defs><linearGradient id="未命名的渐变_59" x1="16.88" y1="-4.98" x2="16.88" y2="72.9" gradientUnits="userSpaceOnUse"><stop offset="0" stop-color="#273129"/><stop offset="0.48" stop-color="#485e31"/><stop offset="0.99" stop-color="#2c392a"/></linearGradient><linearGradient id="未命名的渐变_59-2" x1="52.37" y1="-4.98" x2="52.37" y2="72.9" xlink:href="#未命名的渐变_59"/></defs><rect x="0.5" y="0.5" width="66.1" height="66.1" rx="8.69" style="fill:#fff;stroke:#444;stroke-miterlimit:10"/><rect x="23.83" y="23.17" width="23.73" height="18.64" style="fill:#357c36;stroke:#020202;stroke-miterlimit:10"/><polygon points="13.7 52.18 13.7 42.49 9.43 42.49 9.43 23.14 13.7 23.14 13.7 13.45 24.32 13.45 24.32 52.18 13.7 52.18" style="fill:url(#未命名的渐变_59)"/><path d="M23.82,14V51.68H14.2V42H9.93V23.64H14.2V14h9.62m1-1H13.2v9.69H8.93V43H13.2v9.69H24.82V13Z"/><rect x="47.05" y="13.45" width="10.62" height="38.73" style="fill:url(#未命名的渐变_59-2)"/><path d="M57.18,14V51.68H47.55V14h9.63m1-1H46.55V52.68H58.18V13Z"/><path d="M23.83,23.17s5,18.64,4.92,18.64,3.78-18.64,3.78-18.64L38,41.81l4-18.64,5.59,18.64" style="fill:none;stroke:#020202;stroke-linejoin:bevel"/></svg>