<svg id="图层_1" data-name="图层 1" xmlns="http://www.w3.org/2000/svg" xmlns:xlink="http://www.w3.org/1999/xlink" viewBox="0 0 67.1 67.1"><defs><linearGradient id="未命名的渐变_59" x1="38.65" y1="6.43" x2="38.65" y2="60.45" gradientUnits="userSpaceOnUse"><stop offset="0" stop-color="#273129"/><stop offset="0.48" stop-color="#485e31"/><stop offset="0.99" stop-color="#2c392a"/></linearGradient></defs><rect x="0.5" y="0.5" width="66.1" height="66.1" rx="8.69" style="fill:#fff;stroke:#444;stroke-miterlimit:10"/><polygon points="49.1 23.18 49.1 19.71 13.22 19.71 8.17 19.71 8.17 23.18 8.17 42.44 8.17 45.3 8.17 45.91 49.1 45.91 49.1 42.44 13.22 42.44 13.22 23.18 49.1 23.18" style="fill:#357c36;stroke:#020202;stroke-miterlimit:10"/><polygon points="53.28 46.08 53.28 39.81 17.87 39.81 17.87 25.65 53.28 25.65 53.28 19.21 59.44 19.21 59.44 46.08 53.28 46.08" style="fill:url(#未命名的渐变_59)"/><path d="M58.93,19.71V45.58H53.78V39.31H18.37V26.15H53.78V19.71h5.15m1-1H52.78v6.44H17.37V40.31H52.78v6.27h7.15V18.71Z"/></svg>