<svg id="图层_1" data-name="图层 1" xmlns="http://www.w3.org/2000/svg" xmlns:xlink="http://www.w3.org/1999/xlink" viewBox="0 0 67.1 67.1"><defs><linearGradient id="未命名的渐变_23" x1="23.59" y1="36.18" x2="30.1" y2="42.68" gradientUnits="userSpaceOnUse"><stop offset="0" stop-color="#595757"/><stop offset="0.48" stop-color="#c9caca"/><stop offset="0.99" stop-color="#3e3a39"/></linearGradient><linearGradient id="未命名的渐变_23-2" x1="19.8" y1="30.7" x2="47.9" y2="30.7" xlink:href="#未命名的渐变_23"/></defs><rect x="0.5" y="0.5" width="66.1" height="66.1" rx="8.69" style="fill:#fff;stroke:#444;stroke-miterlimit:10"/><polyline points="22.16 55.34 26.76 42.13 26.76 55.34" style="fill:none;stroke:#010101;stroke-miterlimit:10"/><line x1="31.91" y1="55.34" x2="26.76" y2="42.13" style="fill:none;stroke:#010101;stroke-miterlimit:10"/><polygon points="26.35 43.79 22.16 40.11 27.25 34.59 31.36 38.59 26.35 43.79" style="stroke:#000;stroke-miterlimit:10;fill:url(#未命名的渐变_23)"/><path d="M20,17.79S17.64,26,28,36.43,47.9,42.88,47.9,42.88Z" style="stroke:#000;stroke-miterlimit:10;fill:url(#未命名的渐变_23-2)"/><ellipse cx="33.97" cy="30.33" rx="4.61" ry="18.75" transform="translate(-11.3 35.28) rotate(-48)" style="fill:#fff;stroke:#010101;stroke-miterlimit:10"/><line x1="33.85" y1="30.7" x2="41.18" y2="23.37" style="fill:#fff;stroke:#010101;stroke-miterlimit:10"/><polyline points="39.24 34.86 40.1 24.45 29.14 24.76" style="fill:none;stroke:#010101;stroke-miterlimit:10"/><path d="M42.33,20.41a2,2,0,0,1,2.16,2.16" style="fill:none;stroke:#010101;stroke-linecap:round;stroke-miterlimit:10"/><path d="M42.65,17.05a4.72,4.72,0,0,1,5.12,5.13" style="fill:none;stroke:#010101;stroke-linecap:round;stroke-miterlimit:10"/><path d="M42.65,12.78s9.55-.35,9.55,9.55" style="fill:none;stroke:#010101;stroke-linecap:round;stroke-miterlimit:10"/></svg>