<svg id="图层_1" data-name="图层 1" xmlns="http://www.w3.org/2000/svg" xmlns:xlink="http://www.w3.org/1999/xlink" viewBox="0 0 67.1 67.1"><defs><linearGradient id="未命名的渐变_27" x1="21.17" y1="61.63" x2="25.9" y2="54.06" gradientUnits="userSpaceOnUse"><stop offset="0" stop-color="#595757"/><stop offset="0.65" stop-color="#f80000"/><stop offset="0.99" stop-color="#0b0000"/></linearGradient><linearGradient id="未命名的渐变_26" x1="42.79" y1="60.67" x2="38.94" y2="53.95" gradientUnits="userSpaceOnUse"><stop offset="0" stop-color="#595757"/><stop offset="0.73" stop-color="#f80000"/><stop offset="0.99" stop-color="#0b0000"/></linearGradient><linearGradient id="未命名的渐变_23" x1="21.06" y1="35.71" x2="44.15" y2="35.71" gradientUnits="userSpaceOnUse"><stop offset="0" stop-color="#595757"/><stop offset="0.48" stop-color="#c9caca"/><stop offset="0.99" stop-color="#3e3a39"/></linearGradient><linearGradient id="未命名的渐变_23-2" x1="21.76" y1="11.02" x2="43.12" y2="11.02" xlink:href="#未命名的渐变_23"/></defs><rect x="0.5" y="0.5" width="66.1" height="66.1" rx="8.69" style="fill:#fff;stroke:#444;stroke-miterlimit:10"/><polygon points="19.1 57.83 23.87 53.25 28.04 55.42 25.87 61.22 19.1 57.83" style="fill:url(#未命名的渐变_27)"/><path d="M23.89,53.4l4,2.08L25.8,61,19.31,57.8l4.58-4.4m-.05-.3-.13.12-4.57,4.4-.26.24.32.16,6.49,3.25.25.12.09-.26,2.09-5.56.08-.21-.2-.1-4-2.08-.16-.08Z"/><polygon points="36.58 55.42 40.75 53.25 45.52 57.83 38.75 61.22 36.58 55.42" style="fill:url(#未命名的渐变_26)"/><path d="M40.73,53.4l4.58,4.4L38.82,61l-2.09-5.56,4-2.08m0-.3-.16.08-4,2.08-.2.1.08.21,2.08,5.56.1.26.25-.12L45.42,58l.31-.16-.25-.24-4.58-4.4-.13-.12Z"/><rect x="21.06" y="15.44" width="23.08" height="40.55" rx="2.33" style="stroke:#000;stroke-miterlimit:10;fill:url(#未命名的渐变_23)"/><path d="M29.23,7.51,21.76,16H43.12L35.65,7.51A4.28,4.28,0,0,0,29.23,7.51Z" style="stroke:#000;stroke-miterlimit:10;fill:url(#未命名的渐变_23-2)"/></svg>