<svg id="图层_1" data-name="图层 1" xmlns="http://www.w3.org/2000/svg" xmlns:xlink="http://www.w3.org/1999/xlink" viewBox="0 0 67.1 67.1"><defs><linearGradient id="未命名的渐变_10" x1="42.01" y1="3.15" x2="15.1" y2="76.12" gradientUnits="userSpaceOnUse"><stop offset="0.07" stop-color="#fff"/><stop offset="0.17" stop-color="#bcbcbc"/><stop offset="0.63" stop-color="#9e9e9e"/><stop offset="0.69" stop-color="#838383"/></linearGradient><linearGradient id="未命名的渐变_10-2" x1="37.9" y1="12.56" x2="36.1" y2="17.42" xlink:href="#未命名的渐变_10"/><linearGradient id="未命名的渐变_10-3" x1="37.2" y1="15.51" x2="35.53" y2="20.03" xlink:href="#未命名的渐变_10"/><linearGradient id="未命名的渐变_10-4" x1="36" y1="18.27" x2="34.33" y2="22.79" xlink:href="#未命名的渐变_10"/><linearGradient id="未命名的渐变_10-5" x1="34.81" y1="21.02" x2="33.14" y2="25.54" xlink:href="#未命名的渐变_10"/><linearGradient id="未命名的渐变_10-6" x1="33.61" y1="23.78" x2="31.95" y2="28.3" xlink:href="#未命名的渐变_10"/><linearGradient id="未命名的渐变_10-7" x1="33.07" y1="26.54" x2="31.4" y2="31.06" xlink:href="#未命名的渐变_10"/><linearGradient id="未命名的渐变_10-8" x1="32.33" y1="29.34" x2="30.67" y2="33.86" xlink:href="#未命名的渐变_10"/><linearGradient id="未命名的渐变_10-9" x1="31.03" y1="32.41" x2="29.36" y2="36.93" xlink:href="#未命名的渐变_10"/><linearGradient id="未命名的渐变_10-10" x1="30.19" y1="35.69" x2="28.52" y2="40.21" xlink:href="#未命名的渐变_10"/><linearGradient id="未命名的渐变_10-11" x1="29.18" y1="38.97" x2="27.51" y2="43.49" xlink:href="#未命名的渐变_10"/><linearGradient id="未命名的渐变_10-12" x1="28.22" y1="42.24" x2="26.55" y2="46.76" xlink:href="#未命名的渐变_10"/><linearGradient id="未命名的渐变_10-13" x1="27.26" y1="45.52" x2="25.59" y2="50.04" xlink:href="#未命名的渐变_10"/><linearGradient id="未命名的渐变_10-14" x1="26.3" y1="48.8" x2="24.63" y2="53.32" xlink:href="#未命名的渐变_10"/></defs><rect x="0.5" y="0.5" width="66.1" height="66.1" rx="8.69" style="fill:#fff;stroke:#444;stroke-miterlimit:10"/><polygon points="11.1 50.26 24.82 9.67 51.15 14.55 36.26 58.84 11.1 50.26" style="fill:url(#未命名的渐变_10)"/><path d="M25.15,10.24l25.34,4.7L36,58.2,11.73,49.94l13.42-39.7M24.48,9.1l-.28.82L10.78,49.62l-.32,1,.95.32,24.21,8.26,1,.32.32-.95L51.44,15.25l.37-1.09L50.68,14,25.33,9.26l-.85-.16Z"/><line x1="24.7" y1="11.59" x2="49.65" y2="17.43" style="stroke:#000;stroke-miterlimit:10;stroke-width:0.25px;fill:url(#未命名的渐变_10-2)"/><line x1="23.4" y1="14.04" x2="49.65" y2="20.6" style="stroke:#000;stroke-miterlimit:10;stroke-width:0.25px;fill:url(#未命名的渐变_10-3)"/><line x1="22.21" y1="16.8" x2="48.46" y2="23.36" style="stroke:#000;stroke-miterlimit:10;stroke-width:0.25px;fill:url(#未命名的渐变_10-4)"/><line x1="21.01" y1="19.56" x2="47.27" y2="26.12" style="stroke:#000;stroke-miterlimit:10;stroke-width:0.25px;fill:url(#未命名的渐变_10-5)"/><line x1="19.82" y1="22.32" x2="46.07" y2="28.87" style="stroke:#000;stroke-miterlimit:10;stroke-width:0.25px;fill:url(#未命名的渐变_10-6)"/><line x1="19.27" y1="25.07" x2="45.53" y2="31.63" style="stroke:#000;stroke-miterlimit:10;stroke-width:0.25px;fill:url(#未命名的渐变_10-7)"/><line x1="18.54" y1="27.88" x2="44.79" y2="34.43" style="stroke:#000;stroke-miterlimit:10;stroke-width:0.25px;fill:url(#未命名的渐变_10-8)"/><line x1="17.23" y1="30.95" x2="43.48" y2="37.5" style="stroke:#000;stroke-miterlimit:10;stroke-width:0.25px;fill:url(#未命名的渐变_10-9)"/><line x1="16.4" y1="34.22" x2="42.65" y2="40.78" style="stroke:#000;stroke-miterlimit:10;stroke-width:0.25px;fill:url(#未命名的渐变_10-10)"/><line x1="15.39" y1="37.5" x2="41.64" y2="44.06" style="stroke:#000;stroke-miterlimit:10;stroke-width:0.25px;fill:url(#未命名的渐变_10-11)"/><line x1="14.42" y1="40.78" x2="40.68" y2="47.34" style="stroke:#000;stroke-miterlimit:10;stroke-width:0.25px;fill:url(#未命名的渐变_10-12)"/><line x1="13.46" y1="44.06" x2="39.72" y2="50.61" style="stroke:#000;stroke-miterlimit:10;stroke-width:0.25px;fill:url(#未命名的渐变_10-13)"/><line x1="12.5" y1="47.34" x2="38.76" y2="53.89" style="stroke:#000;stroke-miterlimit:10;stroke-width:0.25px;fill:url(#未命名的渐变_10-14)"/></svg>