<svg id="图层_1" data-name="图层 1" xmlns="http://www.w3.org/2000/svg" viewBox="0 0 67.1 67.1"><rect x="0.5" y="0.5" width="66.1" height="66.1" rx="8.69" style="fill:#fff;stroke:#444;stroke-miterlimit:10"/><polygon points="13.07 32.01 24.5 14.61 45.27 29 52.23 44.22 49.91 47.92 36.54 48.6 13.07 32.01" style="fill:#2d402e;stroke:#fff;stroke-miterlimit:10;stroke-width:0.25px"/><rect x="22.27" y="24.42" width="32.32" height="1.63" transform="translate(21.33 -17.44) rotate(34.87)" style="fill:#2d402e;stroke:#fff;stroke-miterlimit:10;stroke-width:0.25px"/><rect x="11.7" y="40.7" width="32.32" height="1.63" transform="translate(28.73 -8.47) rotate(34.87)" style="fill:#2d402e;stroke:#fff;stroke-miterlimit:10;stroke-width:0.25px"/><rect x="13.56" y="40.01" width="32.32" height="1.63" transform="translate(28.67 -9.66) rotate(34.87)" style="fill:#2d402e;stroke:#fff;stroke-miterlimit:10;stroke-width:0.25px"/><rect x="15.43" y="39.31" width="32.32" height="1.63" transform="translate(28.61 -10.85) rotate(34.87)" style="fill:#2d402e;stroke:#fff;stroke-miterlimit:10;stroke-width:0.25px"/><rect x="17.56" y="38.81" width="32.32" height="1.63" transform="translate(28.71 -12.17) rotate(34.87)" style="fill:#2d402e;stroke:#fff;stroke-miterlimit:10;stroke-width:0.25px"/><rect x="18.33" y="38.01" width="34.2" height="1.63" transform="translate(28.56 -13.29) rotate(34.87)" style="fill:#2d402e;stroke:#fff;stroke-miterlimit:10;stroke-width:0.25px"/><rect x="22.52" y="26.59" width="32.32" height="1.63" transform="matrix(0.82, 0.57, -0.57, 0.82, 22.61, -17.19)" style="fill:#2d402e;stroke:#fff;stroke-miterlimit:10;stroke-width:0.25px"/><rect x="22.78" y="28.79" width="32.43" height="1.63" transform="translate(23.93 -16.97) rotate(34.87)" style="fill:#2d402e;stroke:#fff;stroke-miterlimit:10;stroke-width:0.25px"/><rect x="22.79" y="30.79" width="32.32" height="1.63" transform="translate(25.06 -16.59) rotate(34.87)" style="fill:#2d402e;stroke:#fff;stroke-miterlimit:10;stroke-width:0.25px"/><rect x="21.68" y="32.69" width="34.3" height="1.63" transform="translate(26.13 -16.18) rotate(34.87)" style="fill:#2d402e;stroke:#fff;stroke-miterlimit:10;stroke-width:0.25px"/><rect x="47.27" y="44.39" width="12.99" height="6.11" transform="matrix(0.55, -0.84, 0.84, 0.55, -15.33, 66.61)" style="fill:#2d402e;stroke:#fff;stroke-miterlimit:10;stroke-width:0.25px"/><path d="M14.37,30,9.85,22.77a5.56,5.56,0,0,1,.38-6.32c2.46-3.22,10.89-.09,12.91.23Z" style="fill:#2d402e;stroke:#fff;stroke-miterlimit:10;stroke-width:0.25px"/><circle cx="14.12" cy="19.55" r="2.72" style="fill:#fff"/></svg>