<svg id="图层_1" data-name="图层 1" xmlns="http://www.w3.org/2000/svg" viewBox="0 0 67.1 67.1"><rect x="0.5" y="0.5" width="66.1" height="66.1" rx="8.69" style="fill:#fff;stroke:#444;stroke-miterlimit:10"/><rect x="14.4" y="11.22" width="36.57" height="42.85" style="fill:#bcbcbc;stroke:#020202;stroke-miterlimit:10;stroke-width:0.5px"/><rect x="18.64" y="18.6" width="28.08" height="7.47" style="fill:#757575"/><path d="M46.6,18.73V26H18.77V18.73H46.6m.25-.25H18.52V26.2H46.85V18.48Z" style="fill:#020202"/><rect x="18.64" y="29.32" width="6.85" height="7.47" style="fill:#757575"/><path d="M25.37,29.44v7.22h-6.6V29.44h6.6m.25-.25h-7.1v7.72h7.1V29.19Z" style="fill:#020202"/><rect x="29.26" y="29.32" width="6.85" height="7.47" style="fill:#757575"/><path d="M36,29.44v7.22h-6.6V29.44H36m.25-.25h-7.1v7.72h7.1V29.19Z" style="fill:#020202"/><rect x="18.64" y="40.5" width="6.85" height="7.47" style="fill:#757575"/><path d="M25.37,40.62v7.22h-6.6V40.62h6.6m.25-.25h-7.1v7.72h7.1V40.37Z" style="fill:#020202"/><rect x="29.26" y="40.5" width="6.85" height="7.47" style="fill:#757575"/><path d="M36,40.62v7.22h-6.6V40.62H36m.25-.25h-7.1v7.72h7.1V40.37Z" style="fill:#020202"/><rect x="39.87" y="29.32" width="6.85" height="18.65" style="fill:#757575"/><path d="M46.6,29.44v18.4H40V29.44h6.6m.25-.25h-7.1v18.9h7.1V29.19Z" style="fill:#020202"/><line x1="20.13" y1="33.05" x2="24.01" y2="33.05" style="fill:#bcbcbc;stroke:#020202;stroke-miterlimit:10;stroke-width:0.5px"/><line x1="30.88" y1="33.05" x2="34.76" y2="33.05" style="fill:#bcbcbc;stroke:#020202;stroke-miterlimit:10;stroke-width:0.5px"/><line x1="30.74" y1="44.68" x2="34.62" y2="44.68" style="fill:#bcbcbc;stroke:#020202;stroke-miterlimit:10;stroke-width:0.5px"/><line x1="32.15" y1="43.54" x2="33.22" y2="43.54" style="fill:#bcbcbc;stroke:#020202;stroke-miterlimit:10;stroke-width:0.5px"/><line x1="32.15" y1="46.54" x2="33.22" y2="46.54" style="fill:#bcbcbc;stroke:#020202;stroke-miterlimit:10;stroke-width:0.5px"/><line x1="22.07" y1="31.11" x2="22.07" y2="34.99" style="fill:#bcbcbc;stroke:#020202;stroke-miterlimit:10;stroke-width:0.5px"/><line x1="20.7" y1="43.06" x2="23.44" y2="45.8" style="fill:#bcbcbc;stroke:#020202;stroke-miterlimit:10;stroke-width:0.5px"/><line x1="23.44" y1="43.06" x2="20.7" y2="45.8" style="fill:#bcbcbc;stroke:#020202;stroke-miterlimit:10;stroke-width:0.5px"/></svg>