<svg id="图层_1" data-name="图层 1" xmlns="http://www.w3.org/2000/svg" viewBox="0 0 67.1 67.1"><rect x="0.5" y="0.5" width="66.1" height="66.1" rx="8.69" style="fill:#fff;stroke:#444;stroke-miterlimit:10"/><line x1="11.38" y1="15.01" x2="11.38" y2="57.42" style="fill:none;stroke:#8e8e8e;stroke-miterlimit:10;stroke-width:0.5px"/><polygon points="9.93 16 11.38 10.58 12.84 16 9.93 16" style="fill:#8e8e8e"/><line x1="6.73" y1="53.1" x2="54.62" y2="53.1" style="fill:none;stroke:#8e8e8e;stroke-miterlimit:10;stroke-width:0.5px"/><polygon points="53.63 54.55 59.05 53.1 53.63 51.65 53.63 54.55" style="fill:#8e8e8e"/><line x1="20.25" y1="16.49" x2="20.25" y2="45.85" style="fill:none;stroke:#187ce8;stroke-miterlimit:10"/><polygon points="20.25 50.25 23.3 44.97 17.2 44.97 20.25 50.25" style="fill:#187ce8"/><line x1="32.89" y1="16.24" x2="32.89" y2="45.6" style="fill:none;stroke:#187ce8;stroke-miterlimit:10"/><polygon points="32.89 50 35.94 44.72 29.84 44.72 32.89 50" style="fill:#187ce8"/><line x1="45.52" y1="15.99" x2="45.52" y2="45.35" style="fill:none;stroke:#187ce8;stroke-miterlimit:10"/><polygon points="45.52 49.75 48.58 44.47 42.47 44.47 45.52 49.75" style="fill:#187ce8"/></svg>