<svg id="图层_1" data-name="图层 1" xmlns="http://www.w3.org/2000/svg" viewBox="0 0 67.1 67.1"><rect x="0.5" y="0.5" width="66.1" height="66.1" rx="8.69" style="fill:#fff;stroke:#444;stroke-miterlimit:10"/><line x1="38.86" y1="33.16" x2="54.75" y2="20.9" style="fill:#bcbcbc;stroke:#020202;stroke-miterlimit:10"/><line x1="50.81" y1="14.55" x2="62.11" y2="32.79" style="fill:#bcbcbc;stroke:#020202;stroke-miterlimit:10"/><rect x="18.19" y="32.79" width="12.19" height="6.44" style="fill:#2d402e;stroke:#000;stroke-miterlimit:10;stroke-width:0.25px"/><rect x="30.37" y="32.79" width="12.19" height="6.44" style="fill:#2d402e;stroke:#000;stroke-miterlimit:10;stroke-width:0.25px"/><rect x="48.65" y="32.79" width="13.46" height="6.44" style="fill:#2d402e;stroke:#000;stroke-miterlimit:10;stroke-width:0.25px"/><rect x="42.56" y="32.79" width="6.09" height="6.44" style="fill:#2d402e;stroke:#000;stroke-miterlimit:10;stroke-width:0.25px"/><circle cx="17.94" cy="41.97" r="2.39"/><circle cx="17.94" cy="41.97" r="1.03" style="fill:#bcbcbc;stroke:#020202;stroke-miterlimit:10;stroke-width:0.25px"/><circle cx="27.75" cy="41.97" r="2.39"/><circle cx="27.75" cy="41.97" r="1.03" style="fill:#bcbcbc;stroke:#020202;stroke-miterlimit:10;stroke-width:0.25px"/><circle cx="33.78" cy="41.97" r="2.39"/><circle cx="33.78" cy="41.97" r="1.03" style="fill:#bcbcbc;stroke:#020202;stroke-miterlimit:10;stroke-width:0.25px"/><circle cx="39.8" cy="41.97" r="2.39"/><circle cx="39.8" cy="41.97" r="1.03" style="fill:#bcbcbc;stroke:#020202;stroke-miterlimit:10;stroke-width:0.25px"/><circle cx="45.82" cy="41.97" r="2.39"/><circle cx="45.82" cy="41.97" r="1.03" style="fill:#bcbcbc;stroke:#020202;stroke-miterlimit:10;stroke-width:0.25px"/><circle cx="51.85" cy="41.97" r="2.39"/><circle cx="51.85" cy="41.97" r="1.03" style="fill:#bcbcbc;stroke:#020202;stroke-miterlimit:10;stroke-width:0.25px"/><circle cx="57.87" cy="41.97" r="2.39"/><circle cx="57.87" cy="41.97" r="1.03" style="fill:#bcbcbc;stroke:#020202;stroke-miterlimit:10;stroke-width:0.25px"/><path d="M7.75,32.79,5,35.7V43H15.08a3,3,0,0,1-.1-.74,3,3,0,0,1,3.05-3h.16V32.79ZM11.09,37H8V34.51h3.13Zm4.65,0H12.61V34.51h3.13Z" style="fill:#2d402e;stroke:#000;stroke-miterlimit:10;stroke-width:0.25px"/><rect x="20.76" y="39.58" width="4.17" height="1.79" style="fill:#2d402e;stroke:#000;stroke-miterlimit:10;stroke-width:0.25px"/></svg>