<svg id="图层_1" data-name="图层 1" xmlns="http://www.w3.org/2000/svg" viewBox="0 0 67.1 67.1"><rect x="0.5" y="0.5" width="66.1" height="66.1" rx="8.69" style="fill:#fff;stroke:#444;stroke-miterlimit:10"/><polyline points="1.88 35.48 21.96 35.48 30.11 18.53 41.47 18.53 48.39 14.93" style="fill:none;stroke:#000;stroke-miterlimit:10"/><polyline points="50 47.13 41.76 52.34 30.3 52.34 21.96 35.48" style="fill:none;stroke:#000;stroke-miterlimit:10"/><line x1="48.39" y1="18.81" x2="65.06" y2="18.81" style="fill:none;stroke:#000;stroke-miterlimit:10"/><line x1="48.39" y1="52.81" x2="65.53" y2="52.81" style="fill:none;stroke:#000;stroke-miterlimit:10"/><polyline points="35.22 5.27 35.22 48.84 41.85 48.84" style="fill:none;stroke:#f0f;stroke-miterlimit:10"/><line x1="41.52" y1="15.26" x2="35.22" y2="15.26" style="fill:none;stroke:#f0f;stroke-miterlimit:10"/><circle cx="45.02" cy="24.28" r="0.48"/><circle cx="45.02" cy="27.53" r="0.48"/><circle cx="45.02" cy="30.78" r="0.48"/><circle cx="45.02" cy="34.04" r="0.48"/><circle cx="45.02" cy="37.29" r="0.48"/><circle cx="45.02" cy="40.54" r="0.48"/><circle cx="45.02" cy="43.79" r="0.48"/><polygon points="44.08 15.26 40.8 13.37 40.8 17.15 44.08 15.26" style="fill:#f0f"/><polygon points="44.79 48.84 41.52 46.95 41.52 50.73 44.79 48.84" style="fill:#f0f"/></svg>