<svg id="图层_1" data-name="图层 1" xmlns="http://www.w3.org/2000/svg" xmlns:xlink="http://www.w3.org/1999/xlink" viewBox="0 0 67.1 67.1"><defs><linearGradient id="未命名的渐变_16" x1="16.94" y1="31.67" x2="50.16" y2="31.67" gradientUnits="userSpaceOnUse"><stop offset="0" stop-color="#fff"/><stop offset="0.13" stop-color="#bcbcbc"/><stop offset="0.87" stop-color="#9e9e9e"/><stop offset="0.99" stop-color="#838383"/></linearGradient><linearGradient id="未命名的渐变_23" x1="31.03" y1="48.56" x2="36.07" y2="48.56" gradientUnits="userSpaceOnUse"><stop offset="0" stop-color="#595757"/><stop offset="0.48" stop-color="#c9caca"/><stop offset="0.99" stop-color="#3e3a39"/></linearGradient><linearGradient id="未命名的渐变_23-2" x1="31.79" y1="49.82" x2="35.31" y2="49.82" xlink:href="#未命名的渐变_23"/></defs><rect x="0.5" y="0.5" width="66.1" height="66.1" rx="8.69" style="fill:#fff;stroke:#444;stroke-miterlimit:10"/><rect x="12.78" y="10.9" width="41.54" height="41.54" style="fill:#757575"/><rect x="16.94" y="15.06" width="33.22" height="33.22" style="fill:#bcbcbc;stroke:#020202;stroke-miterlimit:10;stroke-width:0.5px"/><circle cx="33.55" cy="31.67" r="16.61" style="stroke:#000;stroke-miterlimit:10;stroke-width:0.5px;fill:url(#未命名的渐变_16)"/><circle cx="33.55" cy="31.67" r="12.57" style="fill:none;stroke:#686868;stroke-miterlimit:10;stroke-width:0.5px"/><path d="M33.55,34.19a2.52,2.52,0,1,1,2.52-2.52A2.52,2.52,0,0,1,33.55,34.19Z" style="fill:#757575"/><path d="M33.55,29.27a2.4,2.4,0,1,1-2.4,2.4,2.41,2.41,0,0,1,2.4-2.4m0-.25a2.65,2.65,0,1,0,2.65,2.65A2.65,2.65,0,0,0,33.55,29Z"/><rect x="31.03" y="48.16" width="5.04" height="0.81" style="fill:url(#未命名的渐变_23)"/><path d="M36,48.28v.56h-4.8v-.56H36M36.2,48H30.9v1.06h5.3V48Z"/><rect x="31.79" y="49.16" width="3.52" height="1.32" style="fill:url(#未命名的渐变_23-2)"/><path d="M35.18,49.29v1.07H31.92V49.29h3.26m.25-.25H31.67v1.57h3.76V49Z"/><circle cx="19.09" cy="17.27" r="0.76" style="fill:#757575"/><circle cx="47.75" cy="17.27" r="0.76" style="fill:#757575"/><circle cx="19.09" cy="46.62" r="0.76" style="fill:#757575"/><circle cx="47.75" cy="46.62" r="0.76" style="fill:#757575"/></svg>