<svg id="图层_1" data-name="图层 1" xmlns="http://www.w3.org/2000/svg" xmlns:xlink="http://www.w3.org/1999/xlink" viewBox="0 0 67.1 67.1"><defs><linearGradient id="未命名的渐变_16" x1="33.43" y1="7.95" x2="27.76" y2="55.26" gradientUnits="userSpaceOnUse"><stop offset="0" stop-color="#fff"/><stop offset="0.13" stop-color="#bcbcbc"/><stop offset="0.87" stop-color="#9e9e9e"/><stop offset="0.99" stop-color="#838383"/></linearGradient><linearGradient id="未命名的渐变_16-2" x1="-86.08" y1="-241.47" x2="-86.36" y2="-239.13" gradientTransform="matrix(0, 1, -1.58, 0, -337.92, 111.41)" xlink:href="#未命名的渐变_16"/><linearGradient id="未命名的渐变_16-3" x1="-414.74" y1="-750.13" x2="-415.07" y2="-747.41" gradientTransform="matrix(0, 1.29, -0.7, 0, -485.21, 558.79)" xlink:href="#未命名的渐变_16"/><linearGradient id="未命名的渐变_16-4" x1="-86.1" y1="-234.99" x2="-86.39" y2="-232.65" gradientTransform="matrix(0, 1, -1.58, 0, -330.98, 120.98)" xlink:href="#未命名的渐变_16"/><linearGradient id="未命名的渐变_16-5" x1="-414.76" y1="-735.59" x2="-415.08" y2="-732.86" gradientTransform="matrix(0, 1.29, -0.7, 0, -478.46, 568.31)" xlink:href="#未命名的渐变_16"/><linearGradient id="未命名的渐变_16-6" x1="-86.11" y1="-228.82" x2="-86.39" y2="-226.48" gradientTransform="matrix(0, 1, -1.58, 0, -324.34, 130.22)" xlink:href="#未命名的渐变_16"/><linearGradient id="未命名的渐变_16-7" x1="-414.76" y1="-721.74" x2="-415.09" y2="-719.02" gradientTransform="matrix(0, 1.29, -0.7, 0, -471.81, 577.57)" xlink:href="#未命名的渐变_16"/></defs><rect x="0.5" y="0.5" width="66.1" height="66.1" rx="8.69" style="fill:#fff;stroke:#444;stroke-miterlimit:10"/><polygon points="12.78 46.98 24.7 11.53 49.02 11.14 33.37 57.5 12.78 46.98" style="fill:url(#未命名的渐变_16)"/><path d="M48.32,11.65,33.08,56.79,13.4,46.73,25.06,12l23.26-.37m1.4-1-1.42,0L25,11h-.7l-.23.67L12.45,46.42l-.28.81.77.39L32.62,57.68l1,.53.37-1.1L49.26,12l.46-1.34Z"/><rect x="40.17" y="22.85" width="2.92" height="4.55" transform="translate(4.59 56.62) rotate(-71.48)" style="fill:url(#未命名的渐变_16-2)"/><path d="M40.1,23.33l3.83,1.29-.76,2.29-3.84-1.28.77-2.3m-.32-.63-.16.47-.76,2.3-.16.47.47.16L43,27.38l.47.16.16-.47.77-2.29.16-.48-.48-.16-3.83-1.28-.48-.16Z"/><rect x="41.39" y="22.45" width="1.58" height="5.7" transform="translate(4.8 57.28) rotate(-71.51)" style="fill:url(#未命名的渐变_16-3)"/><path d="M39.89,24l4.93,1.65-.34,1L39.54,25l.35-1m-.32-.63-.16.47-.34,1-.16.48.47.15,4.94,1.66.47.16L45,26.8l.34-1,.16-.48L45,25.15,40,23.49l-.47-.15Z"/><rect x="36.9" y="32.55" width="2.92" height="4.55" transform="matrix(0.32, -0.95, 0.95, 0.32, -6.84, 60.16)" style="fill:url(#未命名的渐变_16-4)"/><path d="M36.82,33l3.84,1.28-.77,2.3-3.83-1.29L36.82,33m-.31-.64-.16.48-.77,2.29-.16.48.48.16,3.83,1.28.48.16.16-.48.77-2.29.15-.47-.47-.16L37,32.56l-.47-.16Z"/><rect x="38.12" y="32.16" width="1.58" height="5.7" transform="translate(-6.62 60.82) rotate(-71.53)" style="fill:url(#未命名的渐变_16-5)"/><path d="M36.61,33.67l4.94,1.66-.35,1L36.27,34.7l.34-1M36.3,33l-.16.47-.34,1-.16.47.47.16,4.94,1.65.47.16.16-.47.34-1,.16-.47-.47-.16L36.77,33.2,36.3,33Z"/><rect x="33.8" y="41.79" width="2.92" height="4.55" transform="matrix(0.32, -0.95, 0.95, 0.32, -17.72, 63.53)" style="fill:url(#未命名的渐变_16-6)"/><path d="M33.73,42.28l3.83,1.28-.77,2.3L33,44.57l.77-2.29m-.32-.64-.16.48-.77,2.29-.15.48.47.16,3.84,1.28.47.16.16-.48L38,43.72l.16-.47-.48-.16L33.88,41.8l-.47-.16Z"/><rect x="35.02" y="41.4" width="1.58" height="5.7" transform="translate(-17.51 64.2) rotate(-71.53)" style="fill:url(#未命名的渐变_16-7)"/><path d="M33.51,42.91l4.94,1.66-.34,1-4.94-1.65.34-1m-.31-.63-.16.47-.34,1-.16.47.47.16L38,46.06l.47.16.16-.47.34-1,.16-.47-.47-.16-4.94-1.65-.47-.16Z"/></svg>