<svg id="图层_1" data-name="图层 1" xmlns="http://www.w3.org/2000/svg" xmlns:xlink="http://www.w3.org/1999/xlink" viewBox="0 0 67.1 67.1"><defs><linearGradient id="未命名的渐变_16" x1="34.97" y1="9.59" x2="29.29" y2="56.9" gradientUnits="userSpaceOnUse"><stop offset="0" stop-color="#fff"/><stop offset="0.13" stop-color="#bcbcbc"/><stop offset="0.87" stop-color="#9e9e9e"/><stop offset="0.99" stop-color="#838383"/></linearGradient><linearGradient id="未命名的渐变_16-2" x1="-88.97" y1="-259.69" x2="-89.25" y2="-257.34" gradientTransform="matrix(0, 1, -1.58, 0, -365.16, 115.94)" xlink:href="#未命名的渐变_16"/><linearGradient id="未命名的渐变_16-3" x1="-437.9" y1="-791" x2="-438.23" y2="-788.28" gradientTransform="matrix(0, 1.29, -0.7, 0, -512.47, 590.21)" xlink:href="#未命名的渐变_16"/><linearGradient id="未命名的渐变_16-4" x1="-88.99" y1="-253.21" x2="-89.28" y2="-250.86" gradientTransform="matrix(0, 1, -1.58, 0, -358.23, 125.5)" xlink:href="#未命名的渐变_16"/><linearGradient id="未命名的渐变_16-5" x1="-437.92" y1="-776.45" x2="-438.25" y2="-773.73" gradientTransform="matrix(0, 1.29, -0.7, 0, -505.72, 599.72)" xlink:href="#未命名的渐变_16"/><linearGradient id="未命名的渐变_16-6" x1="-89" y1="-247.04" x2="-89.28" y2="-244.69" gradientTransform="matrix(0, 1, -1.58, 0, -351.58, 134.74)" xlink:href="#未命名的渐变_16"/><linearGradient id="未命名的渐变_16-7" x1="-437.93" y1="-762.61" x2="-438.25" y2="-759.89" gradientTransform="matrix(0, 1.29, -0.7, 0, -499.07, 608.98)" xlink:href="#未命名的渐变_16"/><linearGradient id="未命名的渐变_16-8" x1="38.76" y1="12.19" x2="36.48" y2="18.38" xlink:href="#未命名的渐变_16"/><linearGradient id="未命名的渐变_16-9" x1="37.64" y1="15.43" x2="35.92" y2="20.1" xlink:href="#未命名的渐变_16"/><linearGradient id="未命名的渐变_16-10" x1="36.4" y1="18.99" x2="35.44" y2="21.6" xlink:href="#未命名的渐变_16"/><linearGradient id="未命名的渐变_16-11" x1="35.61" y1="21.3" x2="34.97" y2="23.06" xlink:href="#未命名的渐变_16"/><linearGradient id="未命名的渐变_16-12" x1="32.83" y1="22.77" x2="32.42" y2="23.87" xlink:href="#未命名的渐变_16"/><linearGradient id="未命名的渐变_16-13" x1="34.35" y1="25.39" x2="33.89" y2="26.63" xlink:href="#未命名的渐变_16"/><linearGradient id="未命名的渐变_16-14" x1="33.68" y1="27.36" x2="33.22" y2="28.6" xlink:href="#未命名的渐变_16"/><linearGradient id="未命名的渐变_16-15" x1="33.01" y1="29.33" x2="32.55" y2="30.57" xlink:href="#未命名的渐变_16"/><linearGradient id="未命名的渐变_16-16" x1="32.34" y1="31.3" x2="31.88" y2="32.54" xlink:href="#未命名的渐变_16"/><linearGradient id="未命名的渐变_16-17" x1="29.51" y1="32.55" x2="29.07" y2="33.73" xlink:href="#未命名的渐变_16"/><linearGradient id="未命名的渐变_16-18" x1="31" y1="35.24" x2="30.54" y2="36.49" xlink:href="#未命名的渐变_16"/><linearGradient id="未命名的渐变_16-19" x1="30.33" y1="37.21" x2="29.87" y2="38.46" xlink:href="#未命名的渐变_16"/><linearGradient id="未命名的渐变_16-20" x1="29.66" y1="39.19" x2="29.2" y2="40.43" xlink:href="#未命名的渐变_16"/><linearGradient id="未命名的渐变_16-21" x1="28.99" y1="41.16" x2="28.54" y2="42.4" xlink:href="#未命名的渐变_16"/><linearGradient id="未命名的渐变_16-22" x1="28.32" y1="43.13" x2="27.87" y2="44.37" xlink:href="#未命名的渐变_16"/><linearGradient id="未命名的渐变_16-23" x1="27.65" y1="45.1" x2="27.2" y2="46.34" xlink:href="#未命名的渐变_16"/><linearGradient id="未命名的渐变_16-24" x1="26.84" y1="47.26" x2="26.8" y2="47.37" xlink:href="#未命名的渐变_16"/><linearGradient id="未命名的渐变_16-25" x1="26.35" y1="48.78" x2="25.94" y2="49.89" xlink:href="#未命名的渐变_16"/><linearGradient id="未命名的渐变_16-26" x1="25.91" y1="49.86" x2="25.08" y2="52.12" xlink:href="#未命名的渐变_16"/></defs><rect x="0.5" y="0.5" width="66.1" height="66.1" rx="8.69" style="fill:#fff;stroke:#444;stroke-miterlimit:10"/><polygon points="14.32 48.62 26.23 13.16 50.55 12.78 34.9 59.14 14.32 48.62" style="fill:url(#未命名的渐变_16)"/><path d="M49.85,13.29,34.61,58.43,14.93,48.37,26.59,13.66l23.26-.37m1.4-1-1.42,0-23.25.37h-.71l-.22.67L14,48.05l-.27.82.76.39L34.16,59.32l1,.53.37-1.1L50.8,13.61l.45-1.34Z"/><rect x="41.71" y="24.49" width="2.92" height="4.55" transform="translate(4.08 59.19) rotate(-71.48)" style="fill:url(#未命名的渐变_16-2)"/><path d="M41.63,25l3.84,1.28-.77,2.3-3.84-1.29L41.63,25m-.31-.63-.16.47-.77,2.3-.16.47.47.16L44.54,29l.48.16.15-.47.77-2.3.16-.47-.47-.16L41.79,24.5l-.47-.16Z"/><rect x="42.93" y="24.09" width="1.58" height="5.7" transform="translate(4.3 59.86) rotate(-71.51)" style="fill:url(#未命名的渐变_16-3)"/><path d="M41.42,25.61l4.93,1.65-.34,1-4.93-1.65.34-1M41.1,25l-.16.48-.34,1-.16.47.48.16,4.93,1.65.48.16.16-.47.34-1,.16-.48-.48-.16-4.93-1.65L41.1,25Z"/><rect x="38.43" y="34.19" width="2.92" height="4.55" transform="matrix(0.32, -0.95, 0.95, 0.32, -7.34, 62.73)" style="fill:url(#未命名的渐变_16-4)"/><path d="M38.36,34.68,42.19,36l-.76,2.29L37.59,37l.77-2.29M38,34l-.16.48-.76,2.29-.16.47.47.16,3.84,1.29.47.16.16-.48.77-2.29.16-.48-.48-.15L38.52,34.2,38,34Z"/><rect x="39.65" y="33.8" width="1.58" height="5.7" transform="translate(-7.13 63.4) rotate(-71.53)" style="fill:url(#未命名的渐变_16-5)"/><path d="M38.14,35.31,43.08,37l-.34,1L37.8,36.33l.34-1m-.31-.63-.16.47-.34,1-.16.48.47.16,4.94,1.65.47.16.16-.48.34-1,.16-.47-.47-.16L38.3,34.84l-.47-.16Z"/><rect x="35.33" y="43.43" width="2.92" height="4.55" transform="matrix(0.32, -0.95, 0.95, 0.32, -18.22, 66.1)" style="fill:url(#未命名的渐变_16-6)"/><path d="M35.26,43.92,39.1,45.2l-.77,2.29-3.84-1.28.77-2.29m-.32-.64-.15.48L34,46.05l-.16.47.47.16L38.17,48l.47.16.16-.48.77-2.29.16-.48-.48-.15-3.83-1.29-.48-.16Z"/><rect x="36.55" y="43.04" width="1.58" height="5.7" transform="translate(-18.01 66.77) rotate(-71.53)" style="fill:url(#未命名的渐变_16-7)"/><path d="M35.05,44.55,40,46.2l-.34,1L34.7,45.57l.35-1m-.32-.63-.16.47-.34,1-.16.48.48.16,4.93,1.65.47.16.16-.48.35-1,.15-.47-.47-.16-4.93-1.65-.48-.16Z"/><path d="M26.2,14.82c.56,0,22.69,1.3,22.69,1.3" style="stroke:#000;stroke-miterlimit:10;stroke-width:0.25px;fill:url(#未命名的渐变_16-8)"/><line x1="25.64" y1="16.49" x2="47.81" y2="19.33" style="stroke:#000;stroke-miterlimit:10;stroke-width:0.25px;fill:url(#未命名的渐变_16-9)"/><line x1="25.16" y1="17.91" x2="46.62" y2="22.84" style="stroke:#000;stroke-miterlimit:10;stroke-width:0.25px;fill:url(#未命名的渐变_16-10)"/><line x1="24.69" y1="19.33" x2="45.85" y2="25.13" style="stroke:#000;stroke-miterlimit:10;stroke-width:0.25px;fill:url(#未命名的渐变_16-11)"/><line x1="24.17" y1="20.87" x2="41.06" y2="25.84" style="stroke:#000;stroke-miterlimit:10;stroke-width:0.25px;fill:url(#未命名的渐变_16-12)"/><line x1="23.5" y1="22.84" x2="44.71" y2="29.25" style="stroke:#000;stroke-miterlimit:10;stroke-width:0.25px;fill:url(#未命名的渐变_16-13)"/><line x1="22.83" y1="24.81" x2="44.04" y2="31.22" style="stroke:#000;stroke-miterlimit:10;stroke-width:0.25px;fill:url(#未命名的渐变_16-14)"/><line x1="22.16" y1="26.79" x2="43.38" y2="33.19" style="stroke:#000;stroke-miterlimit:10;stroke-width:0.25px;fill:url(#未命名的渐变_16-15)"/><line x1="21.49" y1="28.76" x2="42.71" y2="35.16" style="stroke:#000;stroke-miterlimit:10;stroke-width:0.25px;fill:url(#未命名的渐变_16-16)"/><line x1="20.82" y1="30.73" x2="37.74" y2="35.62" style="stroke:#000;stroke-miterlimit:10;stroke-width:0.25px;fill:url(#未命名的渐变_16-17)"/><line x1="20.15" y1="32.7" x2="41.37" y2="39.11" style="stroke:#000;stroke-miterlimit:10;stroke-width:0.25px;fill:url(#未命名的渐变_16-18)"/><line x1="19.48" y1="34.67" x2="40.7" y2="41.08" style="stroke:#000;stroke-miterlimit:10;stroke-width:0.25px;fill:url(#未命名的渐变_16-19)"/><line x1="18.81" y1="36.64" x2="40.03" y2="43.05" style="stroke:#000;stroke-miterlimit:10;stroke-width:0.25px;fill:url(#未命名的渐变_16-20)"/><line x1="18.14" y1="38.61" x2="39.36" y2="45.02" style="stroke:#000;stroke-miterlimit:10;stroke-width:0.25px;fill:url(#未命名的渐变_16-21)"/><line x1="17.47" y1="40.58" x2="38.69" y2="46.99" style="stroke:#000;stroke-miterlimit:10;stroke-width:0.25px;fill:url(#未命名的渐变_16-22)"/><line x1="16.8" y1="42.55" x2="38.02" y2="48.96" style="stroke:#000;stroke-miterlimit:10;stroke-width:0.25px;fill:url(#未命名的渐变_16-23)"/><line x1="16.54" y1="43.59" x2="37.1" y2="51.05" style="stroke:#000;stroke-miterlimit:10;stroke-width:0.25px;fill:url(#未命名的渐变_16-24)"/><line x1="16.06" y1="45.02" x2="36.2" y2="53.72" style="stroke:#000;stroke-miterlimit:10;stroke-width:0.25px;fill:url(#未命名的渐变_16-25)"/><line x1="15.67" y1="46.15" x2="35.27" y2="55.96" style="stroke:#000;stroke-miterlimit:10;stroke-width:0.25px;fill:url(#未命名的渐变_16-26)"/></svg>