<svg id="图层_1" data-name="图层 1" xmlns="http://www.w3.org/2000/svg" viewBox="0 0 67.1 67.1"><rect x="0.5" y="0.5" width="66.1" height="66.1" rx="8.69" style="fill:#fff;stroke:#444;stroke-miterlimit:10"/><polygon points="12.07 30.87 8.28 29.18 7.05 31.54 7.05 38.39 7.82 39.02 7.82 31.54 8.42 30.29 12.07 32.12 12.07 30.87" style="fill:#bfbf00"/><polygon points="10.91 27.11 8.28 29.18 12.07 30.87 14.39 28.83 10.91 27.11" style="fill:#ff0"/><polygon points="7.82 31.54 9.23 30.7 8.42 30.29 7.82 31.54" style="fill:#827e00"/><polygon points="12.07 30.2 36.44 12.76 54.91 22.61 30.81 40 12.07 30.2" style="fill:#bcbcbc"/><polygon points="12.07 36.86 12.07 30.2 30.81 40 30.81 46.92 12.07 36.86" style="fill:#727272"/><polygon points="54.91 22.61 54.91 29.62 30.81 46.92 30.81 40 54.91 22.61" style="fill:#8c8c8c"/><polygon points="50.35 29.08 56.12 31.86 57.2 33.44 57.2 40.19 57.94 40.19 57.94 33.26 56.64 30.87 50.35 27.64 50.35 29.08" style="fill:#bfbf00"/><polygon points="52.95 25.81 50.35 27.64 56.64 30.87 59.14 28.97 52.95 25.81" style="fill:#ff0"/><polygon points="57.94 33.26 60.4 31.54 59.14 28.97 56.64 30.87 57.94 33.26" style="fill:#ff0"/><polygon points="57.94 40.19 60.4 38.11 60.4 31.54 57.94 33.26 57.94 40.19" style="fill:#ffff7f"/><polygon points="44.23 33.56 50 36.34 51.09 37.92 51.09 44.67 51.83 44.67 51.83 37.74 50.53 35.35 44.23 32.12 44.23 33.56" style="fill:#bfbf00"/><polygon points="46.84 30.29 44.23 32.12 50.53 35.35 53.02 33.45 46.84 30.29" style="fill:#ff0"/><polygon points="51.83 37.74 54.29 36.02 53.02 33.45 50.53 35.35 51.83 37.74" style="fill:#ff0"/><polygon points="51.83 44.67 54.29 42.59 54.29 36.02 51.83 37.74 51.83 44.67" style="fill:#ffff7f"/><polygon points="37.98 37.85 43.74 40.62 44.83 42.21 44.83 48.95 45.57 48.95 45.57 42.03 44.27 39.64 37.98 36.41 37.98 37.85" style="fill:#bfbf00"/><polygon points="40.58 34.58 37.98 36.41 44.27 39.64 46.77 37.74 40.58 34.58" style="fill:#ff0"/><polygon points="45.57 42.03 48.03 40.31 46.77 37.74 44.27 39.64 45.57 42.03" style="fill:#ff0"/><polygon points="45.57 48.95 48.03 46.88 48.03 40.31 45.57 42.03 45.57 48.95" style="fill:#ffff7f"/><polygon points="31.9 42.73 37.66 45.51 38.75 47.09 38.75 53.84 39.49 53.84 39.49 46.92 38.19 44.53 31.9 41.29 31.9 42.73" style="fill:#bfbf00"/><polygon points="34.5 39.46 31.9 41.29 38.19 44.53 40.68 42.63 34.5 39.46" style="fill:#ff0"/><polygon points="39.49 46.92 41.95 45.19 40.68 42.63 38.19 44.53 39.49 46.92" style="fill:#ff0"/><polygon points="39.49 53.84 41.95 51.77 41.95 45.19 39.49 46.92 39.49 53.84" style="fill:#ffff7f"/><polygon points="18.16 25.88 14.39 24.07 13.16 26.11 13.16 28.22 13.91 28.59 13.89 26.58 14.64 25.43 17.22 26.7 18.16 25.88" style="fill:#bfbf00"/><polygon points="17.01 22.13 20.71 24.07 18.16 25.88 14.39 24.07 17.01 22.13" style="fill:#ff0"/><path d="M20.85,19.6S19.42,21.9,19.47,22s0,1.43,0,1.43l.69.37V22.22l.69-1.14,2.37,1.05,1.07-.56Z" style="fill:#bfbf00"/><polygon points="23.24 17.82 26.78 19.6 24.29 21.57 20.85 19.6 23.24 17.82" style="fill:#ff0"/><polygon points="13.89 26.58 15.55 25.88 14.64 25.43 13.89 26.58" style="fill:#827e00"/><polygon points="20.16 22.22 21.88 21.54 20.85 21.08 20.16 22.22" style="fill:#827e00"/><polygon points="26.78 15.43 25.61 17.94 25.61 19.05 26.19 19.3 26.19 18.01 26.89 16.46 29.4 17.82 30.36 17.12 26.78 15.43" style="fill:#bfbf00"/><polygon points="29.43 13.46 32.96 15.24 30.36 17.12 26.78 15.43 29.43 13.46" style="fill:#ff0"/><polygon points="26.19 18.01 27.74 16.92 26.89 16.46 26.19 18.01" style="fill:#827e00"/></svg>