<svg id="图层_1" data-name="图层 1" xmlns="http://www.w3.org/2000/svg" viewBox="0 0 67.1 67.1"><rect x="0.5" y="0.5" width="66.1" height="66.1" rx="8.69" style="fill:#fff;stroke:#444;stroke-miterlimit:10"/><rect x="16.02" y="14.38" width="35.22" height="35.22" rx="4.16" style="fill:#2d402e;stroke:#000;stroke-miterlimit:10;stroke-width:0.25px"/><polyline points="36.95 14.38 36.95 20.55 30.29 27.21" style="fill:none;stroke:#fff;stroke-miterlimit:10"/><polyline points="29.97 14.38 29.97 21.75 22.54 21.75 22.54 27.93 16.02 27.93" style="fill:none;stroke:#fff;stroke-miterlimit:10"/><polyline points="44.21 14.38 44.21 25.53 38.89 25.53 35.26 29.16 35.26 32.33 32.02 35.58 16.02 35.58" style="fill:none;stroke:#fff;stroke-miterlimit:10"/><polyline points="41.98 34.62 41.98 38.62 44.55 41.19 44.55 49.6" style="fill:none;stroke:#fff;stroke-miterlimit:10"/><polyline points="16.02 42.45 25.11 42.45 27.31 40.25 32.66 40.25" style="fill:none;stroke:#fff;stroke-miterlimit:10"/><line x1="20.08" y1="8.72" x2="20.08" y2="14.38" style="fill:#bcbcbc;stroke:#020202;stroke-miterlimit:10"/><line x1="25.51" y1="8.72" x2="25.51" y2="14.38" style="fill:#bcbcbc;stroke:#020202;stroke-miterlimit:10"/><line x1="30.95" y1="8.72" x2="30.95" y2="14.38" style="fill:#bcbcbc;stroke:#020202;stroke-miterlimit:10"/><line x1="36.38" y1="8.72" x2="36.38" y2="14.38" style="fill:#bcbcbc;stroke:#020202;stroke-miterlimit:10"/><line x1="41.81" y1="8.72" x2="41.81" y2="14.38" style="fill:#bcbcbc;stroke:#020202;stroke-miterlimit:10"/><line x1="47.24" y1="8.72" x2="47.24" y2="14.38" style="fill:#bcbcbc;stroke:#020202;stroke-miterlimit:10"/><line x1="20.03" y1="49.6" x2="20.03" y2="55.26" style="fill:#bcbcbc;stroke:#020202;stroke-miterlimit:10"/><line x1="25.47" y1="49.6" x2="25.47" y2="55.26" style="fill:#bcbcbc;stroke:#020202;stroke-miterlimit:10"/><line x1="30.9" y1="49.6" x2="30.9" y2="55.26" style="fill:#bcbcbc;stroke:#020202;stroke-miterlimit:10"/><line x1="36.33" y1="49.6" x2="36.33" y2="55.26" style="fill:#bcbcbc;stroke:#020202;stroke-miterlimit:10"/><line x1="41.77" y1="49.6" x2="41.77" y2="55.26" style="fill:#bcbcbc;stroke:#020202;stroke-miterlimit:10"/><line x1="47.2" y1="49.6" x2="47.2" y2="55.26" style="fill:#bcbcbc;stroke:#020202;stroke-miterlimit:10"/><line x1="56.9" y1="17.96" x2="51.24" y2="17.96" style="fill:#bcbcbc;stroke:#020202;stroke-miterlimit:10"/><line x1="56.9" y1="23.39" x2="51.24" y2="23.39" style="fill:#bcbcbc;stroke:#020202;stroke-miterlimit:10"/><line x1="56.9" y1="28.82" x2="51.24" y2="28.82" style="fill:#bcbcbc;stroke:#020202;stroke-miterlimit:10"/><line x1="56.9" y1="34.25" x2="51.24" y2="34.25" style="fill:#bcbcbc;stroke:#020202;stroke-miterlimit:10"/><line x1="56.9" y1="39.69" x2="51.24" y2="39.69" style="fill:#bcbcbc;stroke:#020202;stroke-miterlimit:10"/><line x1="56.9" y1="45.12" x2="51.24" y2="45.12" style="fill:#bcbcbc;stroke:#020202;stroke-miterlimit:10"/><line x1="15.86" y1="17.46" x2="10.2" y2="17.46" style="fill:#bcbcbc;stroke:#020202;stroke-miterlimit:10"/><line x1="15.86" y1="22.9" x2="10.2" y2="22.9" style="fill:#bcbcbc;stroke:#020202;stroke-miterlimit:10"/><line x1="15.86" y1="28.33" x2="10.2" y2="28.33" style="fill:#bcbcbc;stroke:#020202;stroke-miterlimit:10"/><line x1="15.86" y1="33.76" x2="10.2" y2="33.76" style="fill:#bcbcbc;stroke:#020202;stroke-miterlimit:10"/><line x1="15.86" y1="39.19" x2="10.2" y2="39.19" style="fill:#bcbcbc;stroke:#020202;stroke-miterlimit:10"/><line x1="15.86" y1="44.63" x2="10.2" y2="44.63" style="fill:#bcbcbc;stroke:#020202;stroke-miterlimit:10"/><circle cx="28.58" cy="28.8" r="2.42" style="fill:#bcbcbc;stroke:#020202;stroke-miterlimit:10"/><circle cx="41.98" cy="31.99" r="2.42" style="fill:#bcbcbc;stroke:#020202;stroke-miterlimit:10"/><circle cx="35.07" cy="40.25" r="2.42" style="fill:#bcbcbc;stroke:#020202;stroke-miterlimit:10"/><circle cx="33.55" cy="31.99" r="11.72" style="fill:#fff;stroke:#020202;stroke-miterlimit:10"/><text transform="translate(29.25 36.44)" style="font-size:11.858464241027832px;fill:#2d402e;stroke:#000;stroke-miterlimit:10;stroke-width:0.25px;font-family:PingFangSC-Semibold-GBpc-EUC-H, PingFang SC">C</text></svg>