<svg id="图层_1" data-name="图层 1" xmlns="http://www.w3.org/2000/svg" xmlns:xlink="http://www.w3.org/1999/xlink" viewBox="0 0 67.1 67.1"><defs><linearGradient id="未命名的渐变_59" x1="45.32" y1="18.72" x2="50.81" y2="18.72" gradientUnits="userSpaceOnUse"><stop offset="0" stop-color="#273129"/><stop offset="0.48" stop-color="#485e31"/><stop offset="0.99" stop-color="#2c392a"/></linearGradient><linearGradient id="未命名的渐变_59-2" x1="46.33" y1="29.37" x2="49.83" y2="29.37" xlink:href="#未命名的渐变_59"/><linearGradient id="未命名的渐变_59-3" x1="47.28" y1="49.44" x2="57.85" y2="49.44" xlink:href="#未命名的渐变_59"/><linearGradient id="未命名的渐变_59-4" x1="51.53" y1="50.41" x2="58.48" y2="50.41" xlink:href="#未命名的渐变_59"/></defs><rect x="0.5" y="0.5" width="66.1" height="66.1" rx="8.69" style="fill:#fff;stroke:#444;stroke-miterlimit:10"/><path d="M17.32,24.89,46.21,35.46s3.59.86,2.53-2.17c0,0-6.32-6.93-6.93-7.79s-8.05-6.43-8.05-6.43l2.89-1.62S50.21,28.89,52,34.2s-5.21,4.35-7.74,3.54S13.37,26.91,13.37,26.91Z" style="fill:#2d402e;stroke:#000;stroke-miterlimit:10;stroke-width:0.25px"/><path d="M16,47.61l1.85,2.73,3.68-2.43s.94-1.45-1.25-2.66Z" style="fill:#2d402e;stroke:#000;stroke-miterlimit:10;stroke-width:0.25px"/><path d="M10.92,24.18l4.32-1.77s2.13.25,2,3.36l-4.4,2.38Z" style="fill:#2d402e;stroke:#000;stroke-miterlimit:10;stroke-width:0.25px"/><path d="M30.4,16.08l4.69-2A3,3,0,0,1,37,17.45L32.55,20Z" style="fill:#2d402e;stroke:#000;stroke-miterlimit:10;stroke-width:0.25px"/><circle cx="48.27" cy="10.2" r="2.7" style="fill:red;stroke:#000;stroke-miterlimit:10;stroke-width:0.25px"/><circle cx="48.27" cy="10.2" r="1.61" style="fill:#fff;stroke:#000;stroke-miterlimit:10;stroke-width:0.25px"/><ellipse cx="31.49" cy="18.15" rx="1.32" ry="2.25" transform="translate(-4.75 15.38) rotate(-25.58)" style="fill:#2d402e;stroke:#000;stroke-miterlimit:10;stroke-width:0.25px"/><ellipse cx="31.49" cy="18.15" rx="0.96" ry="1.64" transform="translate(-4.75 15.38) rotate(-25.58)" style="fill:#fff;stroke:#000;stroke-miterlimit:10;stroke-width:0.25px"/><ellipse cx="11.92" cy="26.26" rx="1.32" ry="2.25" transform="translate(-10.17 7.72) rotate(-25.58)" style="fill:#2d402e;stroke:#000;stroke-miterlimit:10;stroke-width:0.25px"/><ellipse cx="11.92" cy="26.26" rx="0.9" ry="1.53" transform="translate(-10.17 7.72) rotate(-25.58)" style="fill:#fff;stroke:#000;stroke-miterlimit:10;stroke-width:0.25px"/><ellipse cx="16.88" cy="49.05" rx="0.98" ry="1.66" transform="translate(-23.83 16.9) rotate(-32.71)" style="fill:#2d402e;stroke:#000;stroke-miterlimit:10;stroke-width:0.25px"/><ellipse cx="16.88" cy="49.05" rx="0.66" ry="1.12" transform="translate(-23.83 16.9) rotate(-32.71)" style="fill:#fff;stroke:#000;stroke-miterlimit:10;stroke-width:0.25px"/><path d="M54.78,44.47,51.92,37a13.16,13.16,0,0,1-3.52,1.35s.41,1.44,2.16,6.12-1,7.19-2.49,8.54S43.85,50.71,43,48.15a44.6,44.6,0,0,0-6.92-11.1c-2-1.92-4.69.71-4.69.71a20.07,20.07,0,0,0,1.71,3c.94-.65,1.23.14,1.23.14a23.56,23.56,0,0,1-12.82,7l-2.7,1.79c.51,2.19,5,3.57,7.18,4s14.61,3.1,15.86,3.68a31.5,31.5,0,0,0,5.19,1.14C57.85,57.49,54.78,44.47,54.78,44.47ZM35.65,51.75a22,22,0,0,1-8.55-1.56S25,49.94,26.49,49c0,0,4.21-.78,9.41-5.7,0,0,1.25-.69,1.58.55S38.89,49,38.89,49,40.66,51.7,35.65,51.75Z" style="fill:#2d402e;stroke:#000;stroke-miterlimit:10;stroke-width:0.25px"/><rect x="45.32" y="12.65" width="5.49" height="12.15" style="fill:url(#未命名的渐变_59)"/><path d="M50.56,12.9V24.54h-5V12.9h5m.5-.5h-6V25h6V12.4Z"/><rect x="46.33" y="24.29" width="3.5" height="10.16" style="fill:url(#未命名的渐变_59-2)"/><path d="M49.58,24.54V34.2h-3V24.54h3m.5-.5h-4V34.7h4V24Z"/><ellipse cx="32.27" cy="39.26" rx="0.95" ry="1.66" transform="translate(-14.77 20.02) rotate(-28.34)" style="fill:#2d402e;stroke:#000;stroke-miterlimit:10;stroke-width:0.25px"/><ellipse cx="32.27" cy="39.26" rx="0.61" ry="1.07" transform="translate(-14.77 20.02) rotate(-28.34)" style="fill:#fff;stroke:#000;stroke-miterlimit:10;stroke-width:0.25px"/><path d="M52.7,55.48a11.41,11.41,0,0,1-5.36-3l-.06-.07v-.1c0-8.5,5.84-8.88,5.9-8.88h.07l4.6,2.34-5,9.8Z" style="fill:url(#未命名的渐变_59-3)"/><path d="M53.19,43.63l4.32,2.19-4.76,9.41a11.18,11.18,0,0,1-5.22-3c0-8.36,5.66-8.63,5.66-8.63m.11-.51h-.13a5.94,5.94,0,0,0-3.11,1.28c-1.37,1.09-3,3.33-3,7.85v.2l.13.15a11.63,11.63,0,0,0,5.5,3.11l.37.08.17-.34L58,46.05l.22-.45-.44-.23-4.32-2.19-.12-.06Z"/><path d="M53.35,55.51a1.5,1.5,0,0,1-.7-.16c-1.42-.67-1.51-3.38-.19-6.15,1.09-2.29,2.82-3.88,4.2-3.88a1.63,1.63,0,0,1,.7.15,2.46,2.46,0,0,1,1.12,2.38,8.83,8.83,0,0,1-.94,3.77C56.45,53.91,54.73,55.51,53.35,55.51Z" style="fill:url(#未命名的渐变_59-4)"/><path d="M56.66,45.57a1.31,1.31,0,0,1,.59.13c1.28.6,1.31,3.21.07,5.81-1.07,2.24-2.72,3.75-4,3.75a1.45,1.45,0,0,1-.59-.13c-1.28-.61-1.31-3.22-.07-5.82,1.06-2.23,2.72-3.74,4-3.74m0-.5c-1.5,0-3.27,1.62-4.42,4-1.38,2.9-1.25,5.75.3,6.49a1.85,1.85,0,0,0,.81.18c1.49,0,3.27-1.62,4.42-4a9.22,9.22,0,0,0,1-3.88,2.74,2.74,0,0,0-1.26-2.61,2,2,0,0,0-.81-.17Z"/><ellipse cx="55" cy="50.41" rx="3.64" ry="1.78" transform="translate(-14.16 78.39) rotate(-64.53)" style="fill:#fff;stroke:#020202;stroke-miterlimit:10;stroke-width:0.25px"/></svg>