<svg id="图层_1" data-name="图层 1" xmlns="http://www.w3.org/2000/svg" viewBox="0 0 67.1 67.1"><rect x="0.5" y="0.5" width="66.1" height="66.1" rx="8.69" style="fill:#fff;stroke:#444;stroke-miterlimit:10"/><path d="M6.67,17.74s3.2-8.83,8.89-9,6.22,2.52,9.42,1.84,6.93-4.34,7.46-6.66" style="fill:none;stroke:#a51ec6;stroke-miterlimit:10"/><path d="M6.67,26.74s3.2-8.83,8.89-9,6.22,2.52,9.42,1.84,6.93-4.34,7.46-6.66" style="fill:none;stroke:#a51ec6;stroke-miterlimit:10"/><path d="M6.67,35.74s3.2-8.83,8.89-9,6.22,2.52,9.42,1.84,6.93-4.34,7.46-6.66" style="fill:none;stroke:#a51ec6;stroke-miterlimit:10"/><path d="M37.63,46.32s3.2-8.84,8.89-9,6.22,2.52,9.42,1.84,6.93-4.34,7.46-6.67" style="fill:none;stroke:#a51ec6;stroke-miterlimit:10"/><path d="M37.63,55.32s3.2-8.84,8.89-9,6.22,2.52,9.42,1.84,6.93-4.34,7.46-6.67" style="fill:none;stroke:#a51ec6;stroke-miterlimit:10"/><path d="M37.63,64.32s3.2-8.84,8.89-9,6.22,2.52,9.42,1.84,6.93-4.34,7.46-6.67" style="fill:none;stroke:#a51ec6;stroke-miterlimit:10"/></svg>