<svg id="图层_1" data-name="图层 1" xmlns="http://www.w3.org/2000/svg" xmlns:xlink="http://www.w3.org/1999/xlink" viewBox="0 0 67.1 67.1"><defs><linearGradient id="未命名的渐变_17" x1="36.3" y1="45.76" x2="36.3" y2="15.81" gradientUnits="userSpaceOnUse"><stop offset="0.01" stop-color="#9e9e9e"/><stop offset="0.13" stop-color="#bcbcbc"/><stop offset="0.56" stop-color="#fff"/><stop offset="0.99" stop-color="#838383"/></linearGradient><linearGradient id="未命名的渐变_18" x1="19.51" y1="45.76" x2="19.51" y2="15.81" gradientUnits="userSpaceOnUse"><stop offset="0.06" stop-color="#3e3a39"/><stop offset="0.56" stop-color="#898989"/><stop offset="0.99" stop-color="#3e3a39"/></linearGradient><linearGradient id="未命名的渐变_18-2" x1="53.27" y1="25.6" x2="53.27" y2="30.59" xlink:href="#未命名的渐变_18"/></defs><rect x="0.5" y="0.5" width="66.1" height="66.1" rx="8.69" style="fill:#fff;stroke:#444;stroke-miterlimit:10"/><rect x="21.32" y="14.1" width="29.95" height="29.95" style="fill:url(#未命名的渐变_17)"/><path d="M50.77,14.6V43.55H21.82V14.6h29m1-1H20.82V44.55h31V13.6Z"/><rect x="17.1" y="14.1" width="4.82" height="29.95" style="fill:url(#未命名的渐变_18)"/><path d="M21.42,14.6V43.55H17.6V14.6h3.82m1-1H16.6V44.55h5.82V13.6Z"/><rect x="21.42" y="11.6" width="19.46" height="5.06" style="fill:#5f5f5f"/><polygon points="30.18 38.79 23.3 52.78 49.3 52.78 42.27 38.79 30.18 38.79" style="fill:silver;stroke:#000;stroke-miterlimit:10"/><rect x="50.77" y="25.55" width="4.99" height="4.99" style="fill:url(#未命名的渐变_18-2)"/><rect x="21.42" y="50.81" width="29.04" height="3.23"/></svg>