<svg id="图层_1" data-name="图层 1" xmlns="http://www.w3.org/2000/svg" viewBox="0 0 67.1 67.1"><rect x="0.5" y="0.5" width="66.1" height="66.1" rx="8.69" style="fill:#fff;stroke:#444;stroke-miterlimit:10"/><rect x="6.4" y="13.53" width="12.37" height="11.92" style="fill:none;stroke:#000;stroke-miterlimit:10;stroke-width:0.25px"/><line x1="14.17" y1="13.76" x2="14.17" y2="25.45" style="fill:none;stroke:#2d402e;stroke-miterlimit:10"/><line x1="24.7" y1="19.49" x2="14.17" y2="19.49" style="fill:none;stroke:#2d402e;stroke-miterlimit:10"/><rect x="24.96" y="17.72" width="6.01" height="4.02" style="fill:none;stroke:#000;stroke-miterlimit:10;stroke-width:0.25px"/><rect x="24.96" y="17.72" width="0.9" height="4.02" style="fill:#2d402e;stroke:#000;stroke-miterlimit:10;stroke-width:0.25px"/><polyline points="18.77 23.13 39.46 23.13 39.46 26.97" style="fill:none;stroke:#000;stroke-miterlimit:10;stroke-width:0.25px"/><rect x="25.45" y="26.97" width="28.66" height="22.18" style="fill:none;stroke:#000;stroke-miterlimit:10;stroke-width:0.25px"/><circle cx="25.25" cy="38.42" r="5.16" style="fill:#fff;stroke:#000;stroke-miterlimit:10;stroke-width:0.25px"/><circle cx="54.11" cy="38.06" r="5.16" style="fill:#fff;stroke:#000;stroke-miterlimit:10;stroke-width:0.25px"/><line x1="18.35" y1="31.87" x2="32.11" y2="44.58" style="fill:#2d402e"/><line x1="18.35" y1="31.87" x2="30.81" y2="43.38" style="fill:none;stroke:#000;stroke-miterlimit:10;stroke-width:0.25px"/><polygon points="32.11 44.58 29.59 43.64 30.71 43.29 30.97 42.14 32.11 44.58"/><line x1="60.47" y1="30.83" x2="47.76" y2="44.58" style="fill:#2d402e"/><line x1="60.47" y1="30.83" x2="48.95" y2="43.28" style="fill:none;stroke:#000;stroke-miterlimit:10;stroke-width:0.25px"/><polygon points="47.76 44.58 48.7 42.06 49.04 43.19 50.19 43.44 47.76 44.58"/></svg>