<svg id="图层_1" data-name="图层 1" xmlns="http://www.w3.org/2000/svg" viewBox="0 0 67.1 67.1"><rect x="0.5" y="0.5" width="66.1" height="66.1" rx="8.69" style="fill:#fff;stroke:#444;stroke-miterlimit:10"/><circle cx="34.57" cy="30.85" r="14.48" style="fill:#6b6b6b;stroke:#020202;stroke-miterlimit:10"/><path d="M34.57,12.85h0A17.87,17.87,0,0,0,16.71,30.72V54.36h2.93v-23A14.93,14.93,0,0,1,34.57,16.37h0A14.94,14.94,0,0,1,49.51,31.31V54.36h2.93V30.72A17.87,17.87,0,0,0,34.57,12.85Z" style="fill:#bcbcbc;stroke:#020202;stroke-miterlimit:10;stroke-width:0.5px"/><rect x="32.6" y="9.79" width="3.85" height="17.12" style="fill:#bcbcbc;stroke:#020202;stroke-miterlimit:10"/><line x1="16.71" y1="45.79" x2="19.73" y2="48.82" style="fill:#6b6b6b;stroke:#6b6b6b;stroke-miterlimit:10;stroke-width:0.25px"/><line x1="16.71" y1="44.97" x2="19.73" y2="47.99" style="fill:#6b6b6b;stroke:#6b6b6b;stroke-miterlimit:10;stroke-width:0.25px"/><line x1="16.71" y1="44.09" x2="19.73" y2="47.11" style="fill:#6b6b6b;stroke:#6b6b6b;stroke-miterlimit:10;stroke-width:0.25px"/><line x1="16.71" y1="43.21" x2="19.73" y2="46.23" style="fill:#6b6b6b;stroke:#6b6b6b;stroke-miterlimit:10;stroke-width:0.25px"/><line x1="16.71" y1="42.32" x2="19.73" y2="45.35" style="fill:#6b6b6b;stroke:#6b6b6b;stroke-miterlimit:10;stroke-width:0.25px"/><line x1="16.71" y1="41.44" x2="19.73" y2="44.47" style="fill:#6b6b6b;stroke:#6b6b6b;stroke-miterlimit:10;stroke-width:0.25px"/><line x1="16.71" y1="40.56" x2="19.73" y2="43.59" style="fill:#6b6b6b;stroke:#6b6b6b;stroke-miterlimit:10;stroke-width:0.25px"/><line x1="17.43" y1="40.56" x2="19.6" y2="42.73" style="fill:#6b6b6b;stroke:#6b6b6b;stroke-miterlimit:10;stroke-width:0.25px"/><line x1="18.22" y1="40.56" x2="19.55" y2="41.89" style="fill:#6b6b6b;stroke:#6b6b6b;stroke-miterlimit:10;stroke-width:0.25px"/><line x1="19.06" y1="40.56" x2="19.55" y2="41.06" style="fill:#6b6b6b;stroke:#6b6b6b;stroke-miterlimit:10;stroke-width:0.25px"/><line x1="18.88" y1="48.82" x2="16.74" y2="46.68" style="fill:#6b6b6b;stroke:#6b6b6b;stroke-miterlimit:10;stroke-width:0.25px"/><line x1="18.01" y1="48.82" x2="16.7" y2="47.51" style="fill:#6b6b6b;stroke:#6b6b6b;stroke-miterlimit:10;stroke-width:0.25px"/><line x1="17.24" y1="48.82" x2="16.71" y2="48.28" style="fill:#6b6b6b;stroke:#6b6b6b;stroke-miterlimit:10;stroke-width:0.25px"/><line x1="16.71" y1="34.74" x2="19.73" y2="37.76" style="fill:#6b6b6b;stroke:#6b6b6b;stroke-miterlimit:10;stroke-width:0.25px"/><line x1="16.71" y1="33.91" x2="19.73" y2="36.94" style="fill:#6b6b6b;stroke:#6b6b6b;stroke-miterlimit:10;stroke-width:0.25px"/><line x1="16.71" y1="33.03" x2="19.73" y2="36.05" style="fill:#6b6b6b;stroke:#6b6b6b;stroke-miterlimit:10;stroke-width:0.25px"/><line x1="16.71" y1="32.15" x2="19.73" y2="35.17" style="fill:#6b6b6b;stroke:#6b6b6b;stroke-miterlimit:10;stroke-width:0.25px"/><line x1="16.71" y1="31.27" x2="19.73" y2="34.29" style="fill:#6b6b6b;stroke:#6b6b6b;stroke-miterlimit:10;stroke-width:0.25px"/><line x1="16.71" y1="30.39" x2="19.73" y2="33.41" style="fill:#6b6b6b;stroke:#6b6b6b;stroke-miterlimit:10;stroke-width:0.25px"/><line x1="16.71" y1="29.51" x2="19.73" y2="32.53" style="fill:#6b6b6b;stroke:#6b6b6b;stroke-miterlimit:10;stroke-width:0.25px"/><line x1="17.43" y1="29.51" x2="19.6" y2="31.68" style="fill:#6b6b6b;stroke:#6b6b6b;stroke-miterlimit:10;stroke-width:0.25px"/><line x1="18.22" y1="29.51" x2="19.55" y2="30.84" style="fill:#6b6b6b;stroke:#6b6b6b;stroke-miterlimit:10;stroke-width:0.25px"/><line x1="19.06" y1="29.51" x2="19.56" y2="30" style="fill:#6b6b6b;stroke:#6b6b6b;stroke-miterlimit:10;stroke-width:0.25px"/><line x1="18.89" y1="37.76" x2="16.75" y2="35.62" style="fill:#6b6b6b;stroke:#6b6b6b;stroke-miterlimit:10;stroke-width:0.25px"/><line x1="18.02" y1="37.76" x2="16.71" y2="36.45" style="fill:#6b6b6b;stroke:#6b6b6b;stroke-miterlimit:10;stroke-width:0.25px"/><line x1="17.24" y1="37.76" x2="16.71" y2="37.23" style="fill:#6b6b6b;stroke:#6b6b6b;stroke-miterlimit:10;stroke-width:0.25px"/><line x1="49.66" y1="34.45" x2="52.68" y2="37.47" style="fill:#6b6b6b;stroke:#6b6b6b;stroke-miterlimit:10;stroke-width:0.25px"/><line x1="49.66" y1="33.62" x2="52.68" y2="36.64" style="fill:#6b6b6b;stroke:#6b6b6b;stroke-miterlimit:10;stroke-width:0.25px"/><line x1="49.66" y1="32.74" x2="52.68" y2="35.76" style="fill:#6b6b6b;stroke:#6b6b6b;stroke-miterlimit:10;stroke-width:0.25px"/><line x1="49.66" y1="31.86" x2="52.68" y2="34.88" style="fill:#6b6b6b;stroke:#6b6b6b;stroke-miterlimit:10;stroke-width:0.25px"/><line x1="49.66" y1="30.98" x2="52.68" y2="34" style="fill:#6b6b6b;stroke:#6b6b6b;stroke-miterlimit:10;stroke-width:0.25px"/><line x1="49.66" y1="30.1" x2="52.68" y2="33.12" style="fill:#6b6b6b;stroke:#6b6b6b;stroke-miterlimit:10;stroke-width:0.25px"/><line x1="49.66" y1="29.22" x2="52.68" y2="32.24" style="fill:#6b6b6b;stroke:#6b6b6b;stroke-miterlimit:10;stroke-width:0.25px"/><line x1="50.38" y1="29.22" x2="52.55" y2="31.39" style="fill:#6b6b6b;stroke:#6b6b6b;stroke-miterlimit:10;stroke-width:0.25px"/><line x1="51.17" y1="29.22" x2="52.5" y2="30.54" style="fill:#6b6b6b;stroke:#6b6b6b;stroke-miterlimit:10;stroke-width:0.25px"/><line x1="52.01" y1="29.22" x2="52.5" y2="29.71" style="fill:#6b6b6b;stroke:#6b6b6b;stroke-miterlimit:10;stroke-width:0.25px"/><line x1="51.83" y1="37.47" x2="49.69" y2="35.33" style="fill:#6b6b6b;stroke:#6b6b6b;stroke-miterlimit:10;stroke-width:0.25px"/><line x1="50.96" y1="37.47" x2="49.65" y2="36.16" style="fill:#6b6b6b;stroke:#6b6b6b;stroke-miterlimit:10;stroke-width:0.25px"/><line x1="50.19" y1="37.47" x2="49.66" y2="36.94" style="fill:#6b6b6b;stroke:#6b6b6b;stroke-miterlimit:10;stroke-width:0.25px"/><line x1="49.72" y1="46.04" x2="52.74" y2="49.06" style="fill:#6b6b6b;stroke:#6b6b6b;stroke-miterlimit:10;stroke-width:0.25px"/><line x1="49.72" y1="45.21" x2="52.74" y2="48.23" style="fill:#6b6b6b;stroke:#6b6b6b;stroke-miterlimit:10;stroke-width:0.25px"/><line x1="49.72" y1="44.33" x2="52.74" y2="47.35" style="fill:#6b6b6b;stroke:#6b6b6b;stroke-miterlimit:10;stroke-width:0.25px"/><line x1="49.72" y1="43.45" x2="52.74" y2="46.47" style="fill:#6b6b6b;stroke:#6b6b6b;stroke-miterlimit:10;stroke-width:0.25px"/><line x1="49.72" y1="42.57" x2="52.74" y2="45.59" style="fill:#6b6b6b;stroke:#6b6b6b;stroke-miterlimit:10;stroke-width:0.25px"/><line x1="49.72" y1="41.69" x2="52.74" y2="44.71" style="fill:#6b6b6b;stroke:#6b6b6b;stroke-miterlimit:10;stroke-width:0.25px"/><line x1="49.72" y1="40.81" x2="52.74" y2="43.83" style="fill:#6b6b6b;stroke:#6b6b6b;stroke-miterlimit:10;stroke-width:0.25px"/><line x1="50.44" y1="40.81" x2="52.61" y2="42.98" style="fill:#6b6b6b;stroke:#6b6b6b;stroke-miterlimit:10;stroke-width:0.25px"/><line x1="51.23" y1="40.81" x2="52.56" y2="42.13" style="fill:#6b6b6b;stroke:#6b6b6b;stroke-miterlimit:10;stroke-width:0.25px"/><line x1="52.07" y1="40.81" x2="52.57" y2="41.3" style="fill:#6b6b6b;stroke:#6b6b6b;stroke-miterlimit:10;stroke-width:0.25px"/><line x1="51.9" y1="49.06" x2="49.76" y2="46.92" style="fill:#6b6b6b;stroke:#6b6b6b;stroke-miterlimit:10;stroke-width:0.25px"/><line x1="51.03" y1="49.06" x2="49.72" y2="47.75" style="fill:#6b6b6b;stroke:#6b6b6b;stroke-miterlimit:10;stroke-width:0.25px"/><line x1="50.25" y1="49.06" x2="49.72" y2="48.53" style="fill:#6b6b6b;stroke:#6b6b6b;stroke-miterlimit:10;stroke-width:0.25px"/><line x1="21.73" y1="21.82" x2="22.54" y2="22.43" style="fill:#6b6b6b;stroke:#6b6b6b;stroke-miterlimit:10;stroke-width:0.25px"/><line x1="21.6" y1="21.1" x2="22.84" y2="22" style="fill:#6b6b6b;stroke:#6b6b6b;stroke-miterlimit:10;stroke-width:0.25px"/><line x1="21.52" y1="20.33" x2="23.25" y2="21.55" style="fill:#6b6b6b;stroke:#6b6b6b;stroke-miterlimit:10;stroke-width:0.25px"/><line x1="21.41" y1="19.62" x2="23.56" y2="21.22" style="fill:#6b6b6b;stroke:#6b6b6b;stroke-miterlimit:10;stroke-width:0.25px"/><line x1="22.22" y1="19.21" x2="24.08" y2="20.68" style="fill:#6b6b6b;stroke:#6b6b6b;stroke-miterlimit:10;stroke-width:0.25px"/><line x1="23.32" y1="19.31" x2="24.49" y2="20.28" style="fill:#6b6b6b;stroke:#6b6b6b;stroke-miterlimit:10;stroke-width:0.25px"/><line x1="24.16" y1="19.38" x2="24.82" y2="19.87" style="fill:#6b6b6b;stroke:#6b6b6b;stroke-miterlimit:10;stroke-width:0.25px"/><line x1="24.94" y1="19.17" x2="25.32" y2="19.45" style="fill:#6b6b6b;stroke:#6b6b6b;stroke-miterlimit:10;stroke-width:0.25px"/><line x1="41.31" y1="17.25" x2="47.66" y2="23.61" style="fill:#6b6b6b;stroke:#6b6b6b;stroke-miterlimit:10;stroke-width:0.25px"/><line x1="42.54" y1="17.56" x2="47.82" y2="22.84" style="fill:#6b6b6b;stroke:#6b6b6b;stroke-miterlimit:10;stroke-width:0.25px"/><line x1="43.43" y1="17.74" x2="47.54" y2="21.85" style="fill:#6b6b6b;stroke:#6b6b6b;stroke-miterlimit:10;stroke-width:0.25px"/><line x1="44.17" y1="17.77" x2="47.54" y2="21.14" style="fill:#6b6b6b;stroke:#6b6b6b;stroke-miterlimit:10;stroke-width:0.25px"/><line x1="45.07" y1="17.77" x2="47.42" y2="20.12" style="fill:#6b6b6b;stroke:#6b6b6b;stroke-miterlimit:10;stroke-width:0.25px"/><line x1="45.85" y1="17.77" x2="47.41" y2="19.33" style="fill:#6b6b6b;stroke:#6b6b6b;stroke-miterlimit:10;stroke-width:0.25px"/><circle cx="34.57" cy="30.85" r="4.81" style="fill:#bcbcbc;stroke:#020202;stroke-miterlimit:10"/><circle cx="34.57" cy="30.85" r="2.49" style="fill:#6b6b6b;stroke:#020202;stroke-miterlimit:10"/><line x1="30.7" y1="28.01" x2="29.7" y2="28.01" style="fill:none;stroke:#020202;stroke-miterlimit:10"/><line x1="27.98" y1="28.01" x2="21.95" y2="28.01" style="fill:none;stroke:#020202;stroke-miterlimit:10;stroke-dasharray:1.7220499515533447,1.7220499515533447"/><line x1="21.09" y1="28.01" x2="20.09" y2="28.01" style="fill:none;stroke:#020202;stroke-miterlimit:10"/><line x1="30.7" y1="33.91" x2="29.7" y2="33.91" style="fill:none;stroke:#020202;stroke-miterlimit:10"/><line x1="27.94" y1="33.91" x2="21.75" y2="33.91" style="fill:none;stroke:#020202;stroke-miterlimit:10;stroke-dasharray:1.7670470476150513,1.7670470476150513"/><line x1="20.87" y1="33.91" x2="19.87" y2="33.91" style="fill:none;stroke:#020202;stroke-miterlimit:10"/><line x1="16.7" y1="28.01" x2="7.02" y2="28.01" style="fill:#6b6b6b;stroke:#020202;stroke-miterlimit:10"/><line x1="7.02" y1="33.91" x2="16.57" y2="33.91" style="fill:#6b6b6b;stroke:#020202;stroke-miterlimit:10"/></svg>