<svg id="图层_1" data-name="图层 1" xmlns="http://www.w3.org/2000/svg" xmlns:xlink="http://www.w3.org/1999/xlink" viewBox="0 0 67.1 67.1"><defs><linearGradient id="未命名的渐变_21" x1="10.57" y1="28.46" x2="10.57" y2="40.11" gradientUnits="userSpaceOnUse"><stop offset="0" stop-color="#3e3a39"/><stop offset="0.46" stop-color="#898989"/><stop offset="0.99" stop-color="#3e3a39"/></linearGradient><linearGradient id="未命名的渐变_21-2" x1="11.44" y1="29.31" x2="11.44" y2="39.22" xlink:href="#未命名的渐变_21"/><linearGradient id="未命名的渐变_21-3" x1="12.32" y1="28.46" x2="12.32" y2="40.11" xlink:href="#未命名的渐变_21"/><linearGradient id="未命名的渐变_21-4" x1="13.19" y1="29.31" x2="13.19" y2="39.22" xlink:href="#未命名的渐变_21"/><linearGradient id="未命名的渐变_21-5" x1="14.06" y1="28.46" x2="14.06" y2="40.11" xlink:href="#未命名的渐变_21"/><linearGradient id="未命名的渐变_21-6" x1="14.93" y1="29.31" x2="14.93" y2="39.22" xlink:href="#未命名的渐变_21"/><linearGradient id="未命名的渐变_21-7" x1="15.8" y1="28.46" x2="15.8" y2="40.11" xlink:href="#未命名的渐变_21"/><linearGradient id="未命名的渐变_21-8" x1="16.67" y1="29.31" x2="16.67" y2="39.22" xlink:href="#未命名的渐变_21"/><linearGradient id="未命名的渐变_21-9" x1="17.55" y1="28.46" x2="17.55" y2="40.11" xlink:href="#未命名的渐变_21"/><linearGradient id="未命名的渐变_21-10" x1="18.42" y1="29.31" x2="18.42" y2="39.22" xlink:href="#未命名的渐变_21"/><linearGradient id="未命名的渐变_21-11" x1="19.29" y1="28.46" x2="19.29" y2="40.11" xlink:href="#未命名的渐变_21"/><linearGradient id="未命名的渐变_21-12" x1="20.16" y1="29.31" x2="20.16" y2="39.22" xlink:href="#未命名的渐变_21"/><linearGradient id="未命名的渐变_21-13" x1="21.03" y1="28.46" x2="21.03" y2="40.11" xlink:href="#未命名的渐变_21"/><linearGradient id="未命名的渐变_21-14" x1="21.9" y1="29.31" x2="21.9" y2="39.22" xlink:href="#未命名的渐变_21"/><linearGradient id="未命名的渐变_21-15" x1="22.77" y1="28.46" x2="22.77" y2="40.11" xlink:href="#未命名的渐变_21"/><linearGradient id="未命名的渐变_21-16" x1="23.65" y1="29.31" x2="23.65" y2="39.22" xlink:href="#未命名的渐变_21"/><linearGradient id="未命名的渐变_21-17" x1="24.52" y1="28.46" x2="24.52" y2="40.11" xlink:href="#未命名的渐变_21"/><linearGradient id="未命名的渐变_21-18" x1="25.39" y1="29.31" x2="25.39" y2="39.22" xlink:href="#未命名的渐变_21"/><linearGradient id="未命名的渐变_21-19" x1="26.26" y1="28.46" x2="26.26" y2="40.11" xlink:href="#未命名的渐变_21"/><linearGradient id="未命名的渐变_21-20" x1="27.13" y1="29.31" x2="27.13" y2="39.22" xlink:href="#未命名的渐变_21"/><linearGradient id="未命名的渐变_21-21" x1="28" y1="28.46" x2="28" y2="40.11" xlink:href="#未命名的渐变_21"/><linearGradient id="未命名的渐变_21-22" x1="28.88" y1="29.31" x2="28.88" y2="39.22" xlink:href="#未命名的渐变_21"/><linearGradient id="未命名的渐变_21-23" x1="49.91" y1="28.46" x2="49.91" y2="40.11" xlink:href="#未命名的渐变_21"/><linearGradient id="未命名的渐变_21-24" x1="50.79" y1="29.31" x2="50.79" y2="39.22" xlink:href="#未命名的渐变_21"/><linearGradient id="未命名的渐变_21-25" x1="51.66" y1="28.46" x2="51.66" y2="40.11" xlink:href="#未命名的渐变_21"/><linearGradient id="未命名的渐变_21-26" x1="52.53" y1="29.31" x2="52.53" y2="39.22" xlink:href="#未命名的渐变_21"/><linearGradient id="未命名的渐变_21-27" x1="53.4" y1="28.46" x2="53.4" y2="40.11" xlink:href="#未命名的渐变_21"/><linearGradient id="未命名的渐变_21-28" x1="54.27" y1="29.31" x2="54.27" y2="39.22" xlink:href="#未命名的渐变_21"/><linearGradient id="未命名的渐变_21-29" x1="55.14" y1="28.46" x2="55.14" y2="40.11" xlink:href="#未命名的渐变_21"/><linearGradient id="未命名的渐变_21-30" x1="56.01" y1="29.31" x2="56.01" y2="39.22" xlink:href="#未命名的渐变_21"/><linearGradient id="未命名的渐变_21-31" x1="56.89" y1="28.46" x2="56.89" y2="40.11" xlink:href="#未命名的渐变_21"/><linearGradient id="未命名的渐变_21-32" x1="57.76" y1="29.31" x2="57.76" y2="39.22" xlink:href="#未命名的渐变_21"/><linearGradient id="未命名的渐变_21-33" x1="58.63" y1="28.46" x2="58.63" y2="40.11" xlink:href="#未命名的渐变_21"/><linearGradient id="未命名的渐变_20" x1="32.33" y1="20.31" x2="32.33" y2="48.75" gradientUnits="userSpaceOnUse"><stop offset="0" stop-color="#727171"/><stop offset="0.56" stop-color="#c9caca"/><stop offset="0.99" stop-color="#3e3a39"/></linearGradient><linearGradient id="未命名的渐变_20-2" x1="42.96" y1="25.57" x2="42.96" y2="43.18" xlink:href="#未命名的渐变_20"/><linearGradient id="未命名的渐变_22" x1="60.9" y1="32.52" x2="60.9" y2="35.81" gradientUnits="userSpaceOnUse"><stop offset="0" stop-color="#727171"/><stop offset="0.45" stop-color="#c9caca"/><stop offset="0.99" stop-color="#3e3a39"/></linearGradient><linearGradient id="未命名的渐变_22-2" x1="8.3" y1="32.52" x2="8.3" y2="35.81" xlink:href="#未命名的渐变_22"/></defs><rect x="0.5" y="0.5" width="66.1" height="66.1" rx="8.69" style="fill:#fff;stroke:#444;stroke-miterlimit:10"/><rect x="10.05" y="27.93" width="1.05" height="12.37" style="fill:url(#未命名的渐变_21)"/><rect x="11.1" y="28.85" width="0.69" height="10.53" style="fill:url(#未命名的渐变_21-2)"/><rect x="11.79" y="27.93" width="1.05" height="12.37" style="fill:url(#未命名的渐变_21-3)"/><rect x="12.84" y="28.85" width="0.69" height="10.53" style="fill:url(#未命名的渐变_21-4)"/><rect x="13.53" y="27.93" width="1.05" height="12.37" style="fill:url(#未命名的渐变_21-5)"/><rect x="14.58" y="28.85" width="0.69" height="10.53" style="fill:url(#未命名的渐变_21-6)"/><rect x="15.28" y="27.93" width="1.05" height="12.37" style="fill:url(#未命名的渐变_21-7)"/><rect x="16.33" y="28.85" width="0.69" height="10.53" style="fill:url(#未命名的渐变_21-8)"/><rect x="17.02" y="27.93" width="1.05" height="12.37" style="fill:url(#未命名的渐变_21-9)"/><rect x="18.07" y="28.85" width="0.69" height="10.53" style="fill:url(#未命名的渐变_21-10)"/><rect x="18.76" y="27.93" width="1.05" height="12.37" style="fill:url(#未命名的渐变_21-11)"/><rect x="19.81" y="28.85" width="0.69" height="10.53" style="fill:url(#未命名的渐变_21-12)"/><rect x="20.51" y="27.93" width="1.05" height="12.37" style="fill:url(#未命名的渐变_21-13)"/><rect x="21.56" y="28.85" width="0.69" height="10.53" style="fill:url(#未命名的渐变_21-14)"/><rect x="22.25" y="27.93" width="1.05" height="12.37" style="fill:url(#未命名的渐变_21-15)"/><rect x="23.3" y="28.85" width="0.69" height="10.53" style="fill:url(#未命名的渐变_21-16)"/><rect x="23.99" y="27.93" width="1.05" height="12.37" style="fill:url(#未命名的渐变_21-17)"/><rect x="25.04" y="28.85" width="0.69" height="10.53" style="fill:url(#未命名的渐变_21-18)"/><rect x="25.74" y="27.93" width="1.05" height="12.37" style="fill:url(#未命名的渐变_21-19)"/><rect x="26.79" y="28.85" width="0.69" height="10.53" style="fill:url(#未命名的渐变_21-20)"/><rect x="27.48" y="27.93" width="1.05" height="12.37" style="fill:url(#未命名的渐变_21-21)"/><rect x="28.53" y="28.85" width="0.69" height="10.53" style="fill:url(#未命名的渐变_21-22)"/><rect x="49.39" y="27.93" width="1.05" height="12.37" style="fill:url(#未命名的渐变_21-23)"/><rect x="50.44" y="28.85" width="0.69" height="10.53" style="fill:url(#未命名的渐变_21-24)"/><rect x="51.13" y="27.93" width="1.05" height="12.37" style="fill:url(#未命名的渐变_21-25)"/><rect x="52.18" y="28.85" width="0.69" height="10.53" style="fill:url(#未命名的渐变_21-26)"/><rect x="52.87" y="27.93" width="1.05" height="12.37" style="fill:url(#未命名的渐变_21-27)"/><rect x="53.92" y="28.85" width="0.69" height="10.53" style="fill:url(#未命名的渐变_21-28)"/><rect x="54.62" y="27.93" width="1.05" height="12.37" style="fill:url(#未命名的渐变_21-29)"/><rect x="55.67" y="28.85" width="0.69" height="10.53" style="fill:url(#未命名的渐变_21-30)"/><rect x="56.36" y="27.93" width="1.05" height="12.37" style="fill:url(#未命名的渐变_21-31)"/><rect x="57.41" y="28.85" width="0.69" height="10.53" style="fill:url(#未命名的渐变_21-32)"/><rect x="58.1" y="27.93" width="1.05" height="12.37" style="fill:url(#未命名的渐变_21-33)"/><rect x="28.68" y="19.01" width="7.3" height="30.21" style="fill:url(#未命名的渐变_20)"/><path d="M35.48,19.51V48.72h-6.3V19.51h6.3m1-1h-8.3V49.72h8.3V18.51Z"/><rect x="35.93" y="24.77" width="14.05" height="18.7" style="fill:url(#未命名的渐变_20-2)"/><path d="M49.49,25.27V43H36.43V25.27H49.49m1-1H35.43V44H50.49V24.27Z"/><rect x="59.15" y="32.37" width="3.49" height="3.49" style="fill:url(#未命名的渐变_22)"/><rect x="6.55" y="32.37" width="3.49" height="3.49" style="fill:url(#未命名的渐变_22-2)"/></svg>