<svg id="图层_1" data-name="图层 1" xmlns="http://www.w3.org/2000/svg" xmlns:xlink="http://www.w3.org/1999/xlink" viewBox="0 0 67.1 67.1"><defs><linearGradient id="未命名的渐变_59" x1="11.63" y1="33.55" x2="57.42" y2="33.55" gradientUnits="userSpaceOnUse"><stop offset="0" stop-color="#273129"/><stop offset="0.48" stop-color="#485e31"/><stop offset="0.99" stop-color="#2c392a"/></linearGradient></defs><rect x="0.5" y="0.5" width="66.1" height="66.1" rx="8.69" style="fill:#fff;stroke:#444;stroke-miterlimit:10"/><rect x="11.63" y="10.66" width="45.79" height="45.79" style="fill:url(#未命名的渐变_59)"/><path d="M57.29,10.78V56.32H11.75V10.78H57.29m.25-.25h-46v46h46v-46Z"/><rect x="30.68" y="17.51" width="6.65" height="3.25" style="fill:#020202"/><rect x="20.91" y="21.99" width="6.65" height="3.25" transform="translate(-9.6 24.05) rotate(-45)" style="fill:#2b2b2b"/><rect x="17.17" y="32.06" width="6.65" height="3.25" transform="translate(-13.19 54.18) rotate(-90)" style="fill:#444"/><rect x="21.64" y="41.83" width="6.65" height="3.25" transform="translate(11.89 91.84) rotate(-135)" style="fill:#565656"/><rect x="31.72" y="45.57" width="6.65" height="3.25" transform="translate(70.08 94.4) rotate(-180)" style="fill:#7f7f7f"/><rect x="41.49" y="41.1" width="6.65" height="3.25" transform="translate(106.7 41.25) rotate(135)" style="fill:#d1d1d1"/><rect x="45.23" y="31.03" width="6.65" height="3.25" transform="translate(81.2 -15.9) rotate(90)" style="fill:#d8d8d8"/><rect x="40.75" y="21.26" width="6.65" height="3.25" transform="translate(29.09 -24.47) rotate(45)" style="fill:#e5e5e5"/></svg>