<svg id="图层_1" data-name="图层 1" xmlns="http://www.w3.org/2000/svg" xmlns:xlink="http://www.w3.org/1999/xlink" viewBox="0 0 67.1 67.1"><defs><linearGradient id="未命名的渐变_17" x1="36.96" y1="19.87" x2="36.96" y2="54.73" gradientUnits="userSpaceOnUse"><stop offset="0.01" stop-color="#9e9e9e"/><stop offset="0.13" stop-color="#bcbcbc"/><stop offset="0.56" stop-color="#fff"/><stop offset="0.99" stop-color="#838383"/></linearGradient><linearGradient id="未命名的渐变_28" x1="33.48" y1="-10.87" x2="33.48" y2="32.19" gradientUnits="userSpaceOnUse"><stop offset="0.01" stop-color="#9e9e9e"/><stop offset="0.56" stop-color="#fff"/><stop offset="0.64" stop-color="#838383"/><stop offset="0.71" stop-color="#bcbcbc"/></linearGradient><linearGradient id="未命名的渐变_30" x1="11.48" y1="34" x2="18.69" y2="34" gradientUnits="userSpaceOnUse"><stop offset="0.01" stop-color="#9e9e9e"/><stop offset="0.03" stop-color="#fff"/><stop offset="0.64" stop-color="#838383"/><stop offset="0.95" stop-color="#bcbcbc"/></linearGradient></defs><rect x="0.5" y="0.5" width="66.1" height="66.1" rx="8.69" style="fill:#fff;stroke:#444;stroke-miterlimit:10"/><rect x="19.53" y="20.06" width="34.86" height="34.86" style="fill:url(#未命名的渐变_17)"/><path d="M54.27,20.18V54.8H19.65V20.18H54.27m.25-.25H19.4V55.05H54.52V19.93Z"/><polygon points="19.65 20.31 12.39 13.07 47.06 13.07 54.57 20.31 19.65 20.31" style="fill:url(#未命名的渐变_28)"/><path d="M47.06,13.2l7.21,7H19.65l-7-7H47.06m.11-.25H12.09l.42.42,7,7,.07.07H54.88L54.44,20l-7.2-7L47.17,13Z"/><polygon points="12.6 47.79 12.56 12.89 19.74 20.1 19.78 55.1 12.6 47.79" style="fill:url(#未命名的渐变_30)"/><path d="M12.69,13.2l7,7V54.8l-7-7.1V13.2m-.25-.61V47.8l.07.08,7,7.09.42.44V20.08L19.83,20l-7-7-.43-.43Z"/><polygon points="37.65 30.06 31.49 40.71 43.8 40.71 37.65 30.06" style="fill:none;stroke:#444;stroke-miterlimit:10"/><circle cx="37.65" cy="30.39" r="2.53" style="fill:#444"/><circle cx="31.49" cy="40.71" r="2.53" style="fill:#444"/><circle cx="43.8" cy="40.71" r="2.53" style="fill:#444"/></svg>