<svg id="图层_1" data-name="图层 1" xmlns="http://www.w3.org/2000/svg" viewBox="0 0 67.1 67.1"><rect x="0.5" y="0.5" width="66.1" height="66.1" rx="8.69" style="fill:#fff;stroke:#444;stroke-miterlimit:10"/><polygon points="56.7 14.82 37.41 34.12 37.41 14.82 56.7 14.82" style="fill:#5a0"/><polygon points="56.7 34.12 37.41 34.12 56.7 14.82 56.7 34.12" style="fill:#9191d8"/><polyline points="37.41 20.74 15.71 20.74 15.71 28.5" style="fill:none;stroke:#020202;stroke-miterlimit:10;stroke-width:0.5px"/><polyline points="37.41 26.92 26.17 26.92 26.17 38.25 16.17 38.25" style="fill:none;stroke:#020202;stroke-miterlimit:10;stroke-width:0.5px"/><line x1="15.71" y1="31.16" x2="15.71" y2="45.35" style="fill:none;stroke:#020202;stroke-miterlimit:10;stroke-width:0.5px"/><line x1="10.4" y1="28.65" x2="21.22" y2="28.65" style="fill:none;stroke:#020202;stroke-miterlimit:10;stroke-width:0.5px"/><line x1="13.05" y1="31.16" x2="18.5" y2="31.16" style="fill:none;stroke:#020202;stroke-miterlimit:10;stroke-width:0.5px"/><line x1="10.91" y1="45.35" x2="20.27" y2="45.35" style="fill:none;stroke:#020202;stroke-miterlimit:10;stroke-width:0.5px"/><line x1="12.54" y1="47.41" x2="18.5" y2="47.41" style="fill:none;stroke:#020202;stroke-miterlimit:10;stroke-width:0.5px"/><line x1="13.8" y1="49.42" x2="17.17" y2="49.42" style="fill:none;stroke:#020202;stroke-miterlimit:10;stroke-width:0.5px"/><text transform="translate(37.9 21.89)" style="font-size:6.158420562744141px;font-family:PingFangSC-Medium-GBpc-EUC-H, PingFang SC">DC </text><text transform="translate(47.05 31.16)" style="font-size:6.158420562744141px;font-family:PingFangSC-Medium-GBpc-EUC-H, PingFang SC">AC</text><rect x="37.41" y="14.82" width="19.3" height="19.3" style="fill:none;stroke:#020202;stroke-miterlimit:10"/><line x1="56.7" y1="14.82" x2="37.41" y2="34.12" style="fill:none;stroke:#020202;stroke-miterlimit:10"/></svg>