<svg id="图层_1" data-name="图层 1" xmlns="http://www.w3.org/2000/svg" xmlns:xlink="http://www.w3.org/1999/xlink" viewBox="0 0 67.1 67.1"><defs><linearGradient id="未命名的渐变_23" x1="19.49" y1="54.71" x2="21.63" y2="54.71" gradientTransform="translate(16.86 -13.4) rotate(22.78)" gradientUnits="userSpaceOnUse"><stop offset="0" stop-color="#595757"/><stop offset="0.48" stop-color="#c9caca"/><stop offset="0.99" stop-color="#3e3a39"/></linearGradient><linearGradient id="未命名的渐变_23-2" x1="20.34" y1="36.98" x2="22.48" y2="36.98" gradientTransform="translate(28.66 -13.27) rotate(38.66)" xlink:href="#未命名的渐变_23"/><linearGradient id="未命名的渐变_23-3" x1="26.58" y1="25.52" x2="28.72" y2="25.52" gradientTransform="translate(62.2 -1.33) rotate(95.11)" xlink:href="#未命名的渐变_23"/><linearGradient id="未命名的渐变_23-4" x1="34.26" y1="14.65" x2="36.4" y2="14.65" gradientTransform="matrix(-0.93, 0.37, -0.37, -0.93, 82.7, 33.03)" xlink:href="#未命名的渐变_23"/><linearGradient id="未命名的渐变_23-5" x1="34.45" y1="0.29" x2="36.6" y2="0.29" gradientTransform="translate(84.27 38.17) rotate(166.86)" xlink:href="#未命名的渐变_23"/></defs><rect x="0.5" y="0.5" width="66.1" height="66.1" rx="8.69" style="fill:#fff;stroke:#444;stroke-miterlimit:10"/><line x1="12.05" y1="16.43" x2="12.05" y2="58.84" style="fill:none;stroke:#8e8e8e;stroke-miterlimit:10;stroke-width:0.5px"/><polygon points="10.59 17.42 12.05 12 13.5 17.42 10.59 17.42" style="fill:#8e8e8e"/><line x1="7.39" y1="54.52" x2="55.28" y2="54.52" style="fill:none;stroke:#8e8e8e;stroke-miterlimit:10;stroke-width:0.5px"/><polygon points="54.29 55.97 59.71 54.52 54.29 53.07 54.29 55.97" style="fill:#8e8e8e"/><path d="M12.05,54.52s5.54-30.94,20.5-30.94S51.18,54.52,51.18,54.52" style="fill:none;stroke:#9b9b9b;stroke-miterlimit:10;stroke-dasharray:2"/><path d="M15.54,43.25l-.73,4.09-2-.83,2.41-3.38A.16.16,0,0,1,15.54,43.25Z" style="stroke:#000;stroke-miterlimit:10;stroke-width:0.25px;fill:url(#未命名的渐变_23)"/><path d="M23.63,27.55l-1.82,3.73-1.67-1.34,3.24-2.59A.16.16,0,0,1,23.63,27.55Z" style="stroke:#000;stroke-miterlimit:10;stroke-width:0.25px;fill:url(#未命名的渐变_23-2)"/><path d="M36.24,24.27l-4.11.55.19-2.14,4,1.27A.16.16,0,0,1,36.24,24.27Z" style="stroke:#000;stroke-miterlimit:10;stroke-width:0.25px;fill:url(#未命名的渐变_23-3)"/><path d="M45,34.43,42.68,31l2-.79.65,4.09A.16.16,0,0,1,45,34.43Z" style="stroke:#000;stroke-miterlimit:10;stroke-width:0.25px;fill:url(#未命名的渐变_23-4)"/><path d="M49.9,47.91l-1.81-3.74,2.08-.48,0,4.14A.16.16,0,0,1,49.9,47.91Z" style="stroke:#000;stroke-miterlimit:10;stroke-width:0.25px;fill:url(#未命名的渐变_23-5)"/><path d="M39.65,22.61l-4.12-.5.72-2,3.5,2.22A.16.16,0,0,1,39.65,22.61Z" style="fill:none;stroke:#000;stroke-miterlimit:10;stroke-width:0.25px"/><path d="M43.31,39.51,41.2,35.94l2-.66.37,4.13A.16.16,0,0,1,43.31,39.51Z" style="fill:none;stroke:#000;stroke-miterlimit:10;stroke-width:0.25px"/></svg>