<svg id="图层_1" data-name="图层 1" xmlns="http://www.w3.org/2000/svg" xmlns:xlink="http://www.w3.org/1999/xlink" viewBox="0 0 67.1 67.1"><defs><linearGradient id="未命名的渐变_80" x1="22.21" y1="45.05" x2="22.21" y2="35.68" gradientUnits="userSpaceOnUse"><stop offset="0.12" stop-color="#f7f8f8"/><stop offset="0.4" stop-color="#f8b62d"/><stop offset="0.81" stop-color="#ea5514"/><stop offset="0.99" stop-color="#e83828"/></linearGradient><linearGradient id="未命名的渐变_80-2" x1="43.1" y1="45.05" x2="43.1" y2="35.68" xlink:href="#未命名的渐变_80"/><linearGradient id="未命名的渐变_16" x1="15.04" y1="28.43" x2="52.23" y2="28.43" gradientUnits="userSpaceOnUse"><stop offset="0" stop-color="#fff"/><stop offset="0.13" stop-color="#bcbcbc"/><stop offset="0.87" stop-color="#9e9e9e"/><stop offset="0.99" stop-color="#838383"/></linearGradient><linearGradient id="未命名的渐变_80-3" x1="4.66" y1="35.92" x2="17.42" y2="29.64" xlink:href="#未命名的渐变_80"/><linearGradient id="未命名的渐变_80-4" x1="31.47" y1="61.56" x2="44.23" y2="55.29" gradientTransform="translate(15.92 91.85) rotate(-113.36)" xlink:href="#未命名的渐变_80"/><linearGradient id="未命名的渐变_80-5" x1="34.43" y1="39.03" x2="34.43" y2="30.96" xlink:href="#未命名的渐变_80"/></defs><rect x="0.18" y="0.49" width="66.4" height="66.4" rx="8.69" style="fill:#fff;stroke:#444;stroke-miterlimit:10"/><polygon points="21.25 33.79 17.67 46.12 26.76 46.12 23.27 33.79 21.25 33.79" style="fill:url(#未命名的渐变_80)"/><polygon points="42.14 33.79 38.56 46.12 47.64 46.12 44.15 33.79 42.14 33.79" style="fill:url(#未命名的渐变_80-2)"/><rect x="15.04" y="22.21" width="37.19" height="12.45" style="stroke:#000;stroke-miterlimit:10;fill:url(#未命名的渐变_16)"/><circle cx="34.28" cy="29.34" r="0.76" style="fill:#515151"/><ellipse cx="48.89" cy="29.34" rx="0.52" ry="0.76" style="fill:#515151"/><ellipse cx="17.67" cy="29.34" rx="0.52" ry="0.76" style="fill:#515151"/><path d="M17.42,28.8c-.48.09-11,1.12-11,1.12L3.84,34.26l3.23,4.4L10.92,38l7-8.27Z" style="fill:url(#未命名的渐变_80-3)"/><path d="M48.37,29.66c.27.41,5.4,9.69,5.4,9.69l5,.61,2.76-4.71L59.38,32,49,28.8Z" style="fill:url(#未命名的渐变_80-4)"/><polygon points="33.56 29.34 30.03 38.03 31.7 39.96 37.53 39.96 38.84 37.47 35.04 29.34 33.56 29.34" style="fill:url(#未命名的渐变_80-5)"/></svg>