<svg id="图层_1" data-name="图层 1" xmlns="http://www.w3.org/2000/svg" viewBox="0 0 67.1 67.1"><rect x="0.5" y="0.5" width="66.1" height="66.1" rx="8.69" style="fill:#fff;stroke:#444;stroke-miterlimit:10"/><path d="M46.27,54.6A12.93,12.93,0,0,1,33.35,41.69V27.35a8,8,0,1,0-16.09,0V41.69H12.39V27.35a12.92,12.92,0,1,1,25.83,0V41.69a8.05,8.05,0,1,0,16.1,0V27.35h4.86V41.69A12.92,12.92,0,0,1,46.27,54.6Z" style="fill:none;stroke:#000;stroke-miterlimit:10"/><path d="M14.82,36.83V27.35A10.48,10.48,0,0,1,25.3,16.87h0A10.49,10.49,0,0,1,35.79,27.35V41.69A10.48,10.48,0,0,0,46.27,52.17h0A10.48,10.48,0,0,0,56.75,41.69v-7" style="fill:none;stroke:#000;stroke-miterlimit:10"/><rect x="11.36" y="41.33" width="6.92" height="7.88" style="fill:#bcbcbc;stroke:#020202;stroke-miterlimit:10;stroke-width:0.5px"/><line x1="13.62" y1="47.19" x2="13.62" y2="49.08" style="fill:#bcbcbc;stroke:#020202;stroke-miterlimit:10;stroke-width:0.5px"/><line x1="16.03" y1="47.19" x2="16.03" y2="49.08" style="fill:#bcbcbc;stroke:#020202;stroke-miterlimit:10;stroke-width:0.5px"/><rect x="53.29" y="20.1" width="6.92" height="7.88" transform="translate(113.5 48.09) rotate(180)" style="fill:#bcbcbc;stroke:#020202;stroke-miterlimit:10;stroke-width:0.5px"/><line x1="57.95" y1="22.12" x2="57.95" y2="20.23" style="fill:#bcbcbc;stroke:#020202;stroke-miterlimit:10;stroke-width:0.5px"/><line x1="55.54" y1="22.12" x2="55.54" y2="20.23" style="fill:#bcbcbc;stroke:#020202;stroke-miterlimit:10;stroke-width:0.5px"/></svg>