<svg id="图层_1" data-name="图层 1" xmlns="http://www.w3.org/2000/svg" viewBox="0 0 67.1 67.1"><rect x="0.5" y="0.5" width="66.1" height="66.1" rx="8.69" style="fill:#fff;stroke:#444;stroke-miterlimit:10"/><rect x="8.16" y="23.62" width="51.21" height="19.87" style="fill:#bcbcbc;stroke:#020202;stroke-miterlimit:10"/><line x1="12.26" y1="28.85" x2="8.7" y2="32.42" style="fill:#bcbcbc;stroke:#020202;stroke-miterlimit:10;stroke-width:0.25px"/><line x1="13.57" y1="28.85" x2="10" y2="32.42" style="fill:#bcbcbc;stroke:#020202;stroke-miterlimit:10;stroke-width:0.25px"/><line x1="14.87" y1="28.85" x2="11.3" y2="32.42" style="fill:#bcbcbc;stroke:#020202;stroke-miterlimit:10;stroke-width:0.25px"/><line x1="16.18" y1="28.85" x2="12.61" y2="32.42" style="fill:#bcbcbc;stroke:#020202;stroke-miterlimit:10;stroke-width:0.25px"/><line x1="17.48" y1="28.85" x2="13.91" y2="32.42" style="fill:#bcbcbc;stroke:#020202;stroke-miterlimit:10;stroke-width:0.25px"/><line x1="18.79" y1="28.85" x2="15.22" y2="32.42" style="fill:#bcbcbc;stroke:#020202;stroke-miterlimit:10;stroke-width:0.25px"/><line x1="20.09" y1="28.85" x2="16.52" y2="32.42" style="fill:#bcbcbc;stroke:#020202;stroke-miterlimit:10;stroke-width:0.25px"/><line x1="21.4" y1="28.85" x2="17.83" y2="32.42" style="fill:#bcbcbc;stroke:#020202;stroke-miterlimit:10;stroke-width:0.25px"/><line x1="22.7" y1="28.85" x2="19.13" y2="32.42" style="fill:#bcbcbc;stroke:#020202;stroke-miterlimit:10;stroke-width:0.25px"/><line x1="24.01" y1="28.85" x2="20.44" y2="32.42" style="fill:#bcbcbc;stroke:#020202;stroke-miterlimit:10;stroke-width:0.25px"/><line x1="25.31" y1="28.85" x2="21.74" y2="32.42" style="fill:#bcbcbc;stroke:#020202;stroke-miterlimit:10;stroke-width:0.25px"/><line x1="26.61" y1="28.85" x2="23.05" y2="32.42" style="fill:#bcbcbc;stroke:#020202;stroke-miterlimit:10;stroke-width:0.25px"/><line x1="27.92" y1="28.85" x2="24.35" y2="32.42" style="fill:#bcbcbc;stroke:#020202;stroke-miterlimit:10;stroke-width:0.25px"/><line x1="29.22" y1="28.85" x2="25.66" y2="32.42" style="fill:#bcbcbc;stroke:#020202;stroke-miterlimit:10;stroke-width:0.25px"/><line x1="30.53" y1="28.85" x2="26.96" y2="32.42" style="fill:#bcbcbc;stroke:#020202;stroke-miterlimit:10;stroke-width:0.25px"/><line x1="31.83" y1="28.85" x2="28.26" y2="32.42" style="fill:#bcbcbc;stroke:#020202;stroke-miterlimit:10;stroke-width:0.25px"/><line x1="33.14" y1="28.85" x2="29.57" y2="32.42" style="fill:#bcbcbc;stroke:#020202;stroke-miterlimit:10;stroke-width:0.25px"/><line x1="34.44" y1="28.85" x2="30.87" y2="32.42" style="fill:#bcbcbc;stroke:#020202;stroke-miterlimit:10;stroke-width:0.25px"/><line x1="35.75" y1="28.85" x2="32.18" y2="32.42" style="fill:#bcbcbc;stroke:#020202;stroke-miterlimit:10;stroke-width:0.25px"/><line x1="37.05" y1="28.85" x2="33.48" y2="32.42" style="fill:#bcbcbc;stroke:#020202;stroke-miterlimit:10;stroke-width:0.25px"/><line x1="38.36" y1="28.85" x2="34.79" y2="32.42" style="fill:#bcbcbc;stroke:#020202;stroke-miterlimit:10;stroke-width:0.25px"/><line x1="39.66" y1="28.85" x2="36.09" y2="32.42" style="fill:#bcbcbc;stroke:#020202;stroke-miterlimit:10;stroke-width:0.25px"/><line x1="40.96" y1="28.85" x2="37.4" y2="32.42" style="fill:#bcbcbc;stroke:#020202;stroke-miterlimit:10;stroke-width:0.25px"/><line x1="42.27" y1="28.85" x2="38.7" y2="32.42" style="fill:#bcbcbc;stroke:#020202;stroke-miterlimit:10;stroke-width:0.25px"/><line x1="43.57" y1="28.85" x2="40.01" y2="32.42" style="fill:#bcbcbc;stroke:#020202;stroke-miterlimit:10;stroke-width:0.25px"/><line x1="44.88" y1="28.85" x2="41.31" y2="32.42" style="fill:#bcbcbc;stroke:#020202;stroke-miterlimit:10;stroke-width:0.25px"/><line x1="46.18" y1="28.85" x2="42.62" y2="32.42" style="fill:#bcbcbc;stroke:#020202;stroke-miterlimit:10;stroke-width:0.25px"/><line x1="47.49" y1="28.85" x2="43.92" y2="32.42" style="fill:#bcbcbc;stroke:#020202;stroke-miterlimit:10;stroke-width:0.25px"/><line x1="48.79" y1="28.85" x2="45.22" y2="32.42" style="fill:#bcbcbc;stroke:#020202;stroke-miterlimit:10;stroke-width:0.25px"/><line x1="50.1" y1="28.85" x2="46.53" y2="32.42" style="fill:#bcbcbc;stroke:#020202;stroke-miterlimit:10;stroke-width:0.25px"/><line x1="51.4" y1="28.85" x2="47.83" y2="32.42" style="fill:#bcbcbc;stroke:#020202;stroke-miterlimit:10;stroke-width:0.25px"/><line x1="52.71" y1="28.85" x2="49.14" y2="32.42" style="fill:#bcbcbc;stroke:#020202;stroke-miterlimit:10;stroke-width:0.25px"/><line x1="54.01" y1="28.85" x2="50.44" y2="32.42" style="fill:#bcbcbc;stroke:#020202;stroke-miterlimit:10;stroke-width:0.25px"/><line x1="55.32" y1="28.85" x2="51.75" y2="32.42" style="fill:#bcbcbc;stroke:#020202;stroke-miterlimit:10;stroke-width:0.25px"/><line x1="56.62" y1="28.85" x2="53.05" y2="32.42" style="fill:#bcbcbc;stroke:#020202;stroke-miterlimit:10;stroke-width:0.25px"/><line x1="57.92" y1="28.85" x2="54.36" y2="32.42" style="fill:#bcbcbc;stroke:#020202;stroke-miterlimit:10;stroke-width:0.25px"/><line x1="59.23" y1="28.85" x2="55.66" y2="32.42" style="fill:#bcbcbc;stroke:#020202;stroke-miterlimit:10;stroke-width:0.25px"/><line x1="10.93" y1="28.85" x2="8.66" y2="31.12" style="fill:#bcbcbc;stroke:#020202;stroke-miterlimit:10;stroke-width:0.25px"/><line x1="9.8" y1="28.69" x2="8.58" y2="29.91" style="fill:#bcbcbc;stroke:#020202;stroke-miterlimit:10;stroke-width:0.25px"/><line x1="57.03" y1="32.42" x2="59.14" y2="30.31" style="fill:#bcbcbc;stroke:#020202;stroke-miterlimit:10;stroke-width:0.25px"/><line x1="58.4" y1="32.42" x2="59.1" y2="31.72" style="fill:#bcbcbc;stroke:#020202;stroke-miterlimit:10;stroke-width:0.25px"/><line x1="12.26" y1="36.85" x2="8.7" y2="40.42" style="fill:#bcbcbc;stroke:#020202;stroke-miterlimit:10;stroke-width:0.25px"/><line x1="13.57" y1="36.85" x2="10" y2="40.42" style="fill:#bcbcbc;stroke:#020202;stroke-miterlimit:10;stroke-width:0.25px"/><line x1="14.87" y1="36.85" x2="11.3" y2="40.42" style="fill:#bcbcbc;stroke:#020202;stroke-miterlimit:10;stroke-width:0.25px"/><line x1="16.18" y1="36.85" x2="12.61" y2="40.42" style="fill:#bcbcbc;stroke:#020202;stroke-miterlimit:10;stroke-width:0.25px"/><line x1="17.48" y1="36.85" x2="13.91" y2="40.42" style="fill:#bcbcbc;stroke:#020202;stroke-miterlimit:10;stroke-width:0.25px"/><line x1="18.79" y1="36.85" x2="15.22" y2="40.42" style="fill:#bcbcbc;stroke:#020202;stroke-miterlimit:10;stroke-width:0.25px"/><line x1="20.09" y1="36.85" x2="16.52" y2="40.42" style="fill:#bcbcbc;stroke:#020202;stroke-miterlimit:10;stroke-width:0.25px"/><line x1="21.4" y1="36.85" x2="17.83" y2="40.42" style="fill:#bcbcbc;stroke:#020202;stroke-miterlimit:10;stroke-width:0.25px"/><line x1="22.7" y1="36.85" x2="19.13" y2="40.42" style="fill:#bcbcbc;stroke:#020202;stroke-miterlimit:10;stroke-width:0.25px"/><line x1="24.01" y1="36.85" x2="20.44" y2="40.42" style="fill:#bcbcbc;stroke:#020202;stroke-miterlimit:10;stroke-width:0.25px"/><line x1="25.31" y1="36.85" x2="21.74" y2="40.42" style="fill:#bcbcbc;stroke:#020202;stroke-miterlimit:10;stroke-width:0.25px"/><line x1="26.61" y1="36.85" x2="23.05" y2="40.42" style="fill:#bcbcbc;stroke:#020202;stroke-miterlimit:10;stroke-width:0.25px"/><line x1="27.92" y1="36.85" x2="24.35" y2="40.42" style="fill:#bcbcbc;stroke:#020202;stroke-miterlimit:10;stroke-width:0.25px"/><line x1="29.22" y1="36.85" x2="25.66" y2="40.42" style="fill:#bcbcbc;stroke:#020202;stroke-miterlimit:10;stroke-width:0.25px"/><line x1="30.53" y1="36.85" x2="26.96" y2="40.42" style="fill:#bcbcbc;stroke:#020202;stroke-miterlimit:10;stroke-width:0.25px"/><line x1="31.83" y1="36.85" x2="28.26" y2="40.42" style="fill:#bcbcbc;stroke:#020202;stroke-miterlimit:10;stroke-width:0.25px"/><line x1="33.14" y1="36.85" x2="29.57" y2="40.42" style="fill:#bcbcbc;stroke:#020202;stroke-miterlimit:10;stroke-width:0.25px"/><line x1="34.44" y1="36.85" x2="30.87" y2="40.42" style="fill:#bcbcbc;stroke:#020202;stroke-miterlimit:10;stroke-width:0.25px"/><line x1="35.75" y1="36.85" x2="32.18" y2="40.42" style="fill:#bcbcbc;stroke:#020202;stroke-miterlimit:10;stroke-width:0.25px"/><line x1="37.05" y1="36.85" x2="33.48" y2="40.42" style="fill:#bcbcbc;stroke:#020202;stroke-miterlimit:10;stroke-width:0.25px"/><line x1="38.36" y1="36.85" x2="34.79" y2="40.42" style="fill:#bcbcbc;stroke:#020202;stroke-miterlimit:10;stroke-width:0.25px"/><line x1="39.66" y1="36.85" x2="36.09" y2="40.42" style="fill:#bcbcbc;stroke:#020202;stroke-miterlimit:10;stroke-width:0.25px"/><line x1="40.96" y1="36.85" x2="37.4" y2="40.42" style="fill:#bcbcbc;stroke:#020202;stroke-miterlimit:10;stroke-width:0.25px"/><line x1="42.27" y1="36.85" x2="38.7" y2="40.42" style="fill:#bcbcbc;stroke:#020202;stroke-miterlimit:10;stroke-width:0.25px"/><line x1="43.57" y1="36.85" x2="40.01" y2="40.42" style="fill:#bcbcbc;stroke:#020202;stroke-miterlimit:10;stroke-width:0.25px"/><line x1="44.88" y1="36.85" x2="41.31" y2="40.42" style="fill:#bcbcbc;stroke:#020202;stroke-miterlimit:10;stroke-width:0.25px"/><line x1="46.18" y1="36.85" x2="42.62" y2="40.42" style="fill:#bcbcbc;stroke:#020202;stroke-miterlimit:10;stroke-width:0.25px"/><line x1="47.49" y1="36.85" x2="43.92" y2="40.42" style="fill:#bcbcbc;stroke:#020202;stroke-miterlimit:10;stroke-width:0.25px"/><line x1="48.79" y1="36.85" x2="45.22" y2="40.42" style="fill:#bcbcbc;stroke:#020202;stroke-miterlimit:10;stroke-width:0.25px"/><line x1="50.1" y1="36.85" x2="46.53" y2="40.42" style="fill:#bcbcbc;stroke:#020202;stroke-miterlimit:10;stroke-width:0.25px"/><line x1="51.4" y1="36.85" x2="47.83" y2="40.42" style="fill:#bcbcbc;stroke:#020202;stroke-miterlimit:10;stroke-width:0.25px"/><line x1="52.71" y1="36.85" x2="49.14" y2="40.42" style="fill:#bcbcbc;stroke:#020202;stroke-miterlimit:10;stroke-width:0.25px"/><line x1="54.01" y1="36.85" x2="50.44" y2="40.42" style="fill:#bcbcbc;stroke:#020202;stroke-miterlimit:10;stroke-width:0.25px"/><line x1="55.32" y1="36.85" x2="51.75" y2="40.42" style="fill:#bcbcbc;stroke:#020202;stroke-miterlimit:10;stroke-width:0.25px"/><line x1="56.62" y1="36.85" x2="53.05" y2="40.42" style="fill:#bcbcbc;stroke:#020202;stroke-miterlimit:10;stroke-width:0.25px"/><line x1="57.92" y1="36.85" x2="54.36" y2="40.42" style="fill:#bcbcbc;stroke:#020202;stroke-miterlimit:10;stroke-width:0.25px"/><line x1="59.23" y1="36.85" x2="55.66" y2="40.42" style="fill:#bcbcbc;stroke:#020202;stroke-miterlimit:10;stroke-width:0.25px"/><line x1="10.93" y1="36.85" x2="8.66" y2="39.12" style="fill:#bcbcbc;stroke:#020202;stroke-miterlimit:10;stroke-width:0.25px"/><line x1="9.8" y1="36.69" x2="8.58" y2="37.91" style="fill:#bcbcbc;stroke:#020202;stroke-miterlimit:10;stroke-width:0.25px"/><line x1="57.03" y1="40.42" x2="59.14" y2="38.31" style="fill:#bcbcbc;stroke:#020202;stroke-miterlimit:10;stroke-width:0.25px"/><line x1="58.4" y1="40.42" x2="59.1" y2="39.72" style="fill:#bcbcbc;stroke:#020202;stroke-miterlimit:10;stroke-width:0.25px"/><circle cx="10" cy="27.83" r="0.11" style="fill:#020202"/><circle cx="10" cy="26.44" r="0.11" style="fill:#020202"/><circle cx="12.16" cy="27.83" r="0.11" style="fill:#020202"/><circle cx="12.16" cy="26.44" r="0.11" style="fill:#020202"/><circle cx="14.31" cy="27.83" r="0.11" style="fill:#020202"/><circle cx="14.31" cy="26.44" r="0.11" style="fill:#020202"/><circle cx="16.46" cy="27.83" r="0.11" style="fill:#020202"/><circle cx="16.46" cy="26.44" r="0.11" style="fill:#020202"/><circle cx="18.62" cy="27.83" r="0.11" style="fill:#020202"/><circle cx="18.62" cy="26.44" r="0.11" style="fill:#020202"/><circle cx="20.77" cy="27.83" r="0.11" style="fill:#020202"/><circle cx="20.77" cy="26.44" r="0.11" style="fill:#020202"/><circle cx="22.33" cy="27.83" r="0.11" style="fill:#020202"/><circle cx="22.33" cy="26.44" r="0.11" style="fill:#020202"/><circle cx="23.88" cy="27.83" r="0.11" style="fill:#020202"/><circle cx="23.88" cy="26.44" r="0.11" style="fill:#020202"/><circle cx="25.44" cy="27.83" r="0.11" style="fill:#020202"/><circle cx="25.44" cy="26.44" r="0.11" style="fill:#020202"/><circle cx="30.77" cy="27.72" r="0.11" style="fill:#020202"/><circle cx="30.77" cy="26.34" r="0.11" style="fill:#020202"/><circle cx="36.09" cy="27.72" r="0.11" style="fill:#020202"/><circle cx="36.09" cy="26.34" r="0.11" style="fill:#020202"/><circle cx="37.77" cy="27.72" r="0.11" style="fill:#020202"/><circle cx="37.77" cy="26.34" r="0.11" style="fill:#020202"/><circle cx="39.44" cy="27.72" r="0.11" style="fill:#020202"/><circle cx="39.44" cy="26.34" r="0.11" style="fill:#020202"/><circle cx="41.12" cy="27.72" r="0.11" style="fill:#020202"/><circle cx="41.12" cy="26.34" r="0.11" style="fill:#020202"/><circle cx="43.47" cy="27.72" r="0.11" style="fill:#020202"/><circle cx="43.47" cy="26.34" r="0.11" style="fill:#020202"/><circle cx="45.81" cy="27.72" r="0.11" style="fill:#020202"/><circle cx="45.81" cy="26.34" r="0.11" style="fill:#020202"/><circle cx="48.15" cy="27.72" r="0.11" style="fill:#020202"/><circle cx="48.15" cy="26.34" r="0.11" style="fill:#020202"/><circle cx="50.5" cy="27.72" r="0.11" style="fill:#020202"/><circle cx="50.5" cy="26.34" r="0.11" style="fill:#020202"/><circle cx="52.84" cy="27.72" r="0.11" style="fill:#020202"/><circle cx="52.84" cy="26.34" r="0.11" style="fill:#020202"/><circle cx="55.18" cy="27.72" r="0.11" style="fill:#020202"/><circle cx="55.18" cy="26.34" r="0.11" style="fill:#020202"/><circle cx="57.53" cy="27.72" r="0.11" style="fill:#020202"/><circle cx="57.53" cy="26.34" r="0.11" style="fill:#020202"/><circle cx="10" cy="35.83" r="0.11" style="fill:#020202"/><circle cx="10" cy="34.44" r="0.11" style="fill:#020202"/><circle cx="12.16" cy="35.83" r="0.11" style="fill:#020202"/><circle cx="12.16" cy="34.44" r="0.11" style="fill:#020202"/><circle cx="14.31" cy="35.83" r="0.11" style="fill:#020202"/><circle cx="14.31" cy="34.44" r="0.11" style="fill:#020202"/><circle cx="16.46" cy="35.83" r="0.11" style="fill:#020202"/><circle cx="16.46" cy="34.44" r="0.11" style="fill:#020202"/><circle cx="18.62" cy="35.83" r="0.11" style="fill:#020202"/><circle cx="18.62" cy="34.44" r="0.11" style="fill:#020202"/><circle cx="20.77" cy="35.83" r="0.11" style="fill:#020202"/><circle cx="20.77" cy="34.44" r="0.11" style="fill:#020202"/><circle cx="22.33" cy="35.83" r="0.11" style="fill:#020202"/><circle cx="22.33" cy="34.44" r="0.11" style="fill:#020202"/><circle cx="23.88" cy="35.83" r="0.11" style="fill:#020202"/><circle cx="23.88" cy="34.44" r="0.11" style="fill:#020202"/><circle cx="25.44" cy="35.83" r="0.11" style="fill:#020202"/><circle cx="25.44" cy="34.44" r="0.11" style="fill:#020202"/><circle cx="30.77" cy="35.72" r="0.11" style="fill:#020202"/><circle cx="30.77" cy="34.34" r="0.11" style="fill:#020202"/><circle cx="36.09" cy="35.72" r="0.11" style="fill:#020202"/><circle cx="36.09" cy="34.34" r="0.11" style="fill:#020202"/><circle cx="37.77" cy="35.72" r="0.11" style="fill:#020202"/><circle cx="37.77" cy="34.34" r="0.11" style="fill:#020202"/><circle cx="39.44" cy="35.72" r="0.11" style="fill:#020202"/><circle cx="39.44" cy="34.34" r="0.11" style="fill:#020202"/><circle cx="41.12" cy="35.72" r="0.11" style="fill:#020202"/><circle cx="41.12" cy="34.34" r="0.11" style="fill:#020202"/><circle cx="43.47" cy="35.72" r="0.11" style="fill:#020202"/><circle cx="43.47" cy="34.34" r="0.11" style="fill:#020202"/><circle cx="45.81" cy="35.72" r="0.11" style="fill:#020202"/><circle cx="45.81" cy="34.34" r="0.11" style="fill:#020202"/><circle cx="48.15" cy="35.72" r="0.11" style="fill:#020202"/><circle cx="48.15" cy="34.34" r="0.11" style="fill:#020202"/><circle cx="50.5" cy="35.72" r="0.11" style="fill:#020202"/><circle cx="50.5" cy="34.34" r="0.11" style="fill:#020202"/><circle cx="52.84" cy="35.72" r="0.11" style="fill:#020202"/><circle cx="52.84" cy="34.34" r="0.11" style="fill:#020202"/><circle cx="55.18" cy="35.72" r="0.11" style="fill:#020202"/><circle cx="55.18" cy="34.34" r="0.11" style="fill:#020202"/><circle cx="57.53" cy="35.72" r="0.11" style="fill:#020202"/><circle cx="57.53" cy="34.34" r="0.11" style="fill:#020202"/></svg>