<svg id="图层_1" data-name="图层 1" xmlns="http://www.w3.org/2000/svg" xmlns:xlink="http://www.w3.org/1999/xlink" viewBox="0 0 67.1 67.1"><defs><linearGradient id="未命名的渐变_62" x1="31.35" y1="13.25" x2="31.35" y2="54.49" gradientTransform="translate(2.2 -2.2)" gradientUnits="userSpaceOnUse"><stop offset="0.3" stop-color="#595757"/><stop offset="0.48" stop-color="#c9caca"/><stop offset="0.65" stop-color="#3e3a39"/></linearGradient><linearGradient id="未命名的渐变_66" x1="33.51" y1="-1.43" x2="33.51" y2="45.13" gradientTransform="translate(7.64 59.38) rotate(-90)" gradientUnits="userSpaceOnUse"><stop offset="0.22" stop-color="#ffe200"/><stop offset="0.66" stop-color="#eb6100"/><stop offset="0.97" stop-color="#e60012"/></linearGradient><linearGradient id="未命名的渐变_17" x1="7.57" y1="30.96" x2="7.57" y2="33.64" gradientTransform="translate(66.05 -1.05) rotate(90)" gradientUnits="userSpaceOnUse"><stop offset="0.01" stop-color="#9e9e9e"/><stop offset="0.13" stop-color="#bcbcbc"/><stop offset="0.56" stop-color="#fff"/><stop offset="0.99" stop-color="#838383"/></linearGradient><linearGradient id="未命名的渐变_17-2" x1="27.03" y1="32.48" x2="27.03" y2="32.48" xlink:href="#未命名的渐变_17"/><linearGradient id="未命名的渐变_60" x1="7.57" y1="31.89" x2="7.57" y2="31.89" gradientTransform="translate(66.05 -1.05) rotate(90)" gradientUnits="userSpaceOnUse"><stop offset="0.31" stop-color="#595757"/><stop offset="0.48" stop-color="#c9caca"/><stop offset="0.63" stop-color="#3e3a39"/></linearGradient><linearGradient id="未命名的渐变_60-2" x1="7.57" y1="32.48" x2="7.57" y2="32.48" xlink:href="#未命名的渐变_60"/><linearGradient id="未命名的渐变_60-3" x1="7.57" y1="33.06" x2="7.57" y2="33.06" xlink:href="#未命名的渐变_60"/><linearGradient id="未命名的渐变_64" x1="53.68" y1="14.78" x2="53.68" y2="52.83" gradientTransform="translate(66.05 -1.05) rotate(90)" gradientUnits="userSpaceOnUse"><stop offset="0.18" stop-color="#3e3a39"/><stop offset="0.38" stop-color="#807f7f"/><stop offset="0.47" stop-color="#3e3a39"/><stop offset="0.65" stop-color="#898989"/></linearGradient></defs><rect x="0.5" y="0.5" width="66.1" height="66.1" rx="8.69" style="fill:#fff;stroke:#444;stroke-miterlimit:10"/><rect x="10.17" y="22.45" width="46.76" height="15.72" transform="translate(63.86 -3.25) rotate(90)" style="stroke:#000;stroke-miterlimit:10;stroke-width:0.5px;fill:url(#未命名的渐变_62)"/><rect x="15.09" y="18.62" width="36.85" height="14.5" transform="translate(59.38 -7.64) rotate(90)" style="stroke:#050505;stroke-miterlimit:10;stroke-width:0.25px;fill:url(#未命名的渐变_66)"/><polyline points="32.14 44.16 32.14 7.64 34.96 7.64 34.96 44.16" style="fill:none;stroke:#000;stroke-miterlimit:10;stroke-width:0.5px"/><rect x="32.52" y="5.22" width="2.05" height="2.6" style="fill:url(#未命名的渐变_17)"/><path d="M34.45,5.35V7.7h-1.8V5.35h1.8m.25-.25H32.4V8h2.3V5.1Z"/><rect x="32.28" y="7.81" width="2.58" height="36.35" style="fill:#66addd"/><line x1="33.58" y1="7.81" x2="33.58" y2="44.16" style="stroke:#000;stroke-miterlimit:10;stroke-width:0.5px;stroke-dasharray:1;fill:url(#未命名的渐变_17-2)"/><line x1="34.16" y1="5.35" x2="34.16" y2="7.7" style="stroke:#000;stroke-miterlimit:10;stroke-width:0.25px;fill:url(#未命名的渐变_60)"/><line x1="33.58" y1="5.35" x2="33.58" y2="7.7" style="stroke:#000;stroke-miterlimit:10;stroke-width:0.25px;fill:url(#未命名的渐变_60-2)"/><line x1="33" y1="5.35" x2="33" y2="7.7" style="stroke:#000;stroke-miterlimit:10;stroke-width:0.25px;fill:url(#未命名的渐变_60-3)"/><path d="M26.26,45.6V50c1.8.42,6,.29,4.65,1.7-2.27,2.29-2.75,7.94-2.75,7.94H38.54c0-5.57-3.48-7.43-3.19-8.45s5.41-1.53,5.41-1.53V45.6A62.33,62.33,0,0,1,26.26,45.6Z" style="stroke:#000;stroke-miterlimit:10;stroke-width:0.25px;fill:url(#未命名的渐变_64)"/></svg>