<svg id="图层_1" data-name="图层 1" xmlns="http://www.w3.org/2000/svg" viewBox="0 0 67.1 67.1"><rect x="0.5" y="0.5" width="66.1" height="66.1" rx="8.69" style="fill:#fff;stroke:#444;stroke-miterlimit:10"/><rect x="16.65" y="15.52" width="35.22" height="35.22" rx="4.16" style="fill:#bcbcbc;stroke:#020202;stroke-miterlimit:10"/><polyline points="37.58 15.52 37.58 21.7 30.92 28.36" style="fill:none;stroke:#020202;stroke-miterlimit:10"/><polyline points="30.6 15.52 30.6 22.9 23.17 22.9 23.17 29.07 16.65 29.07" style="fill:#bcbcbc;stroke:#020202;stroke-miterlimit:10"/><polyline points="44.84 15.52 44.84 26.67 39.52 26.67 35.89 30.3 35.89 33.47 32.65 36.72 16.65 36.72" style="fill:none;stroke:#020202;stroke-miterlimit:10"/><polyline points="42.61 35.76 42.61 39.76 45.18 42.34 45.18 50.74" style="fill:#bcbcbc;stroke:#020202;stroke-miterlimit:10"/><polyline points="16.65 43.59 25.74 43.59 27.94 41.39 33.29 41.39" style="fill:#bcbcbc;stroke:#020202;stroke-miterlimit:10"/><line x1="20.71" y1="9.86" x2="20.71" y2="15.52" style="fill:#bcbcbc;stroke:#020202;stroke-miterlimit:10"/><line x1="26.14" y1="9.86" x2="26.14" y2="15.52" style="fill:#bcbcbc;stroke:#020202;stroke-miterlimit:10"/><line x1="31.58" y1="9.86" x2="31.58" y2="15.52" style="fill:#bcbcbc;stroke:#020202;stroke-miterlimit:10"/><line x1="37.01" y1="9.86" x2="37.01" y2="15.52" style="fill:#bcbcbc;stroke:#020202;stroke-miterlimit:10"/><line x1="42.44" y1="9.86" x2="42.44" y2="15.52" style="fill:#bcbcbc;stroke:#020202;stroke-miterlimit:10"/><line x1="47.88" y1="9.86" x2="47.88" y2="15.52" style="fill:#bcbcbc;stroke:#020202;stroke-miterlimit:10"/><line x1="20.66" y1="50.74" x2="20.66" y2="56.4" style="fill:#bcbcbc;stroke:#020202;stroke-miterlimit:10"/><line x1="26.1" y1="50.74" x2="26.1" y2="56.4" style="fill:#bcbcbc;stroke:#020202;stroke-miterlimit:10"/><line x1="31.53" y1="50.74" x2="31.53" y2="56.4" style="fill:#bcbcbc;stroke:#020202;stroke-miterlimit:10"/><line x1="36.96" y1="50.74" x2="36.96" y2="56.4" style="fill:#bcbcbc;stroke:#020202;stroke-miterlimit:10"/><line x1="42.4" y1="50.74" x2="42.4" y2="56.4" style="fill:#bcbcbc;stroke:#020202;stroke-miterlimit:10"/><line x1="47.83" y1="50.74" x2="47.83" y2="56.4" style="fill:#bcbcbc;stroke:#020202;stroke-miterlimit:10"/><line x1="57.53" y1="19.1" x2="51.87" y2="19.1" style="fill:#bcbcbc;stroke:#020202;stroke-miterlimit:10"/><line x1="57.53" y1="24.53" x2="51.87" y2="24.53" style="fill:#bcbcbc;stroke:#020202;stroke-miterlimit:10"/><line x1="57.53" y1="29.96" x2="51.87" y2="29.96" style="fill:#bcbcbc;stroke:#020202;stroke-miterlimit:10"/><line x1="57.53" y1="35.4" x2="51.87" y2="35.4" style="fill:#bcbcbc;stroke:#020202;stroke-miterlimit:10"/><line x1="57.53" y1="40.83" x2="51.87" y2="40.83" style="fill:#bcbcbc;stroke:#020202;stroke-miterlimit:10"/><line x1="57.53" y1="46.26" x2="51.87" y2="46.26" style="fill:#bcbcbc;stroke:#020202;stroke-miterlimit:10"/><line x1="16.49" y1="18.61" x2="10.83" y2="18.61" style="fill:#bcbcbc;stroke:#020202;stroke-miterlimit:10"/><line x1="16.49" y1="24.04" x2="10.83" y2="24.04" style="fill:#bcbcbc;stroke:#020202;stroke-miterlimit:10"/><line x1="16.49" y1="29.47" x2="10.83" y2="29.47" style="fill:#bcbcbc;stroke:#020202;stroke-miterlimit:10"/><line x1="16.49" y1="34.9" x2="10.83" y2="34.9" style="fill:#bcbcbc;stroke:#020202;stroke-miterlimit:10"/><line x1="16.49" y1="40.34" x2="10.83" y2="40.34" style="fill:#bcbcbc;stroke:#020202;stroke-miterlimit:10"/><line x1="16.49" y1="45.77" x2="10.83" y2="45.77" style="fill:#bcbcbc;stroke:#020202;stroke-miterlimit:10"/><circle cx="29.21" cy="29.95" r="2.42" style="fill:#bcbcbc;stroke:#020202;stroke-miterlimit:10"/><circle cx="42.61" cy="33.13" r="2.42" style="fill:#bcbcbc;stroke:#020202;stroke-miterlimit:10"/><circle cx="35.7" cy="41.39" r="2.42" style="fill:#bcbcbc;stroke:#020202;stroke-miterlimit:10"/></svg>