<svg id="图层_1" data-name="图层 1" xmlns="http://www.w3.org/2000/svg" xmlns:xlink="http://www.w3.org/1999/xlink" viewBox="0 0 67.1 67.1"><defs><linearGradient id="未命名的渐变_62" x1="-200.71" y1="-217.2" x2="-200.71" y2="-175.96" gradientTransform="translate(234.26 229.3)" gradientUnits="userSpaceOnUse"><stop offset="0.3" stop-color="#595757"/><stop offset="0.48" stop-color="#c9caca"/><stop offset="0.65" stop-color="#3e3a39"/></linearGradient><linearGradient id="未命名的渐变_66" x1="33.51" y1="7.58" x2="33.51" y2="44.38" gradientTransform="translate(6.59 60.43) rotate(-90)" gradientUnits="userSpaceOnUse"><stop offset="0.22" stop-color="#ffe200"/><stop offset="0.66" stop-color="#eb6100"/><stop offset="0.97" stop-color="#e60012"/></linearGradient><linearGradient id="未命名的渐变_17" x1="-224.49" y1="-199.49" x2="-224.49" y2="-196.81" gradientTransform="translate(-164.4 232.06) rotate(90)" gradientUnits="userSpaceOnUse"><stop offset="0.01" stop-color="#9e9e9e"/><stop offset="0.13" stop-color="#bcbcbc"/><stop offset="0.56" stop-color="#fff"/><stop offset="0.99" stop-color="#838383"/></linearGradient><linearGradient id="未命名的渐变_17-2" x1="-205.03" y1="-197.98" x2="-205.03" y2="-197.98" xlink:href="#未命名的渐变_17"/><linearGradient id="未命名的渐变_60" x1="-224.49" y1="-198.56" x2="-224.49" y2="-198.56" gradientTransform="translate(-164.4 232.06) rotate(90)" gradientUnits="userSpaceOnUse"><stop offset="0.31" stop-color="#595757"/><stop offset="0.48" stop-color="#c9caca"/><stop offset="0.63" stop-color="#3e3a39"/></linearGradient><linearGradient id="未命名的渐变_60-2" x1="-224.49" y1="-197.98" x2="-224.49" y2="-197.98" xlink:href="#未命名的渐变_60"/><linearGradient id="未命名的渐变_60-3" x1="-224.49" y1="-197.39" x2="-224.49" y2="-197.39" xlink:href="#未命名的渐变_60"/><linearGradient id="未命名的渐变_64" x1="-178.39" y1="-215.67" x2="-178.39" y2="-177.62" gradientTransform="translate(-164.4 232.06) rotate(90)" gradientUnits="userSpaceOnUse"><stop offset="0.18" stop-color="#3e3a39"/><stop offset="0.38" stop-color="#807f7f"/><stop offset="0.47" stop-color="#3e3a39"/><stop offset="0.65" stop-color="#898989"/></linearGradient></defs><rect x="0.5" y="0.5" width="66.1" height="66.1" rx="8.69" style="fill:#fff;stroke:#444;stroke-miterlimit:10"/><rect x="10.17" y="23.49" width="46.76" height="15.72" transform="translate(64.9 -2.2) rotate(90)" style="stroke:#000;stroke-miterlimit:10;stroke-width:0.5px;fill:url(#未命名的渐变_62)"/><rect x="15.09" y="19.67" width="36.85" height="14.5" transform="translate(60.43 -6.59) rotate(90)" style="stroke:#050505;stroke-miterlimit:10;stroke-width:0.25px;fill:url(#未命名的渐变_66)"/><polyline points="32.14 45.21 32.14 8.69 34.96 8.69 34.96 45.21" style="fill:none;stroke:#000;stroke-miterlimit:10;stroke-width:0.5px"/><rect x="32.52" y="6.27" width="2.05" height="2.6" style="fill:url(#未命名的渐变_17)"/><path d="M34.45,6.4V8.75h-1.8V6.4h1.8m.25-.25H32.4V9h2.3V6.15Z"/><rect x="32.28" y="8.86" width="2.58" height="36.35" style="fill:#66addd"/><line x1="33.58" y1="8.86" x2="33.58" y2="45.21" style="stroke:#000;stroke-miterlimit:10;stroke-width:0.5px;stroke-dasharray:1;fill:url(#未命名的渐变_17-2)"/><line x1="34.16" y1="6.4" x2="34.16" y2="8.75" style="stroke:#000;stroke-miterlimit:10;stroke-width:0.25px;fill:url(#未命名的渐变_60)"/><line x1="33.58" y1="6.4" x2="33.58" y2="8.75" style="stroke:#000;stroke-miterlimit:10;stroke-width:0.25px;fill:url(#未命名的渐变_60-2)"/><line x1="33" y1="6.4" x2="33" y2="8.75" style="stroke:#000;stroke-miterlimit:10;stroke-width:0.25px;fill:url(#未命名的渐变_60-3)"/><path d="M26.26,46.65v4.41c1.8.43,6,.3,4.65,1.7-2.27,2.3-2.75,8-2.75,8H38.54c0-5.57-3.48-7.44-3.19-8.46s5.41-1.53,5.41-1.53V46.65A62.33,62.33,0,0,1,26.26,46.65Z" style="stroke:#000;stroke-miterlimit:10;stroke-width:0.25px;fill:url(#未命名的渐变_64)"/></svg>