<svg id="图层_1" data-name="图层 1" xmlns="http://www.w3.org/2000/svg" xmlns:xlink="http://www.w3.org/1999/xlink" viewBox="0 0 67.1 67.1"><defs><linearGradient id="未命名的渐变_53" x1="33.55" y1="60.46" x2="33.55" y2="7.51" gradientUnits="userSpaceOnUse"><stop offset="0" stop-color="#feec01"/><stop offset="0.45" stop-color="#ef1d26"/><stop offset="0.63" stop-color="#c8d534"/><stop offset="0.68" stop-color="#01a550"/><stop offset="0.76" stop-color="#884b88"/><stop offset="0.99" stop-color="#00a7e6"/></linearGradient></defs><rect x="0.5" y="0.5" width="66.1" height="66.1" rx="8.69" style="fill:#fff;stroke:#444;stroke-miterlimit:10"/><path d="M41.79,50c-1.91-3.05-1.36-5-.41-8.35s2.58-12,2.51-17a24.38,24.38,0,0,0,.86-6.2s-3.1-6.22-6.09-10.91V6.4H28.07V7.75s-4.42,7-5.64,10.71c0,0-.07,4.23.88,5.93S23,36.14,26,41.71s-.74,8.69-1.29,10-4.89,8-4.41,9.51H46.88S43.69,53.05,41.79,50Z" style="stroke:#000;stroke-miterlimit:10;fill:url(#未命名的渐变_53)"/><path d="M30.22,6.4s-.85,8.78,3.33,8.78S36.91,6.4,36.91,6.4Z" style="fill:#fff;stroke:#000;stroke-miterlimit:10;stroke-width:0.25px"/><path d="M40.54,7.8l-1.81.45.27.82-4.48,1.67a5.48,5.48,0,0,0-1.81,3.76c0,2.22.45,34.41.32,36.17s-.62,10.53-.62,10.53h2.25s-.87-9.36-.87-10.65.32-36.32.32-36.32-.45-1,1.13-1.8a44.86,44.86,0,0,1,4.35-1.82l.41,1,1.4-.46Z" style="fill:#209950;stroke:#000;stroke-miterlimit:10;stroke-width:0.25px"/></svg>