<svg id="图层_1" data-name="图层 1" xmlns="http://www.w3.org/2000/svg" viewBox="0 0 67.1 67.1"><rect x="0.5" y="0.5" width="66.1" height="66.1" rx="8.69" style="fill:#fff;stroke:#444;stroke-miterlimit:10"/><rect x="13.76" y="13.2" width="35.97" height="45.81" style="fill:#bcbcbc;stroke:#020202;stroke-miterlimit:10;stroke-width:0.5px"/><polygon points="19.39 8.1 13.76 13.2 49.73 13.2 54.76 8.1 19.39 8.1" style="fill:#939393;stroke:#020202;stroke-miterlimit:10;stroke-width:0.5px"/><polygon points="49.73 59.01 49.73 13.2 54.79 8.13 54.79 54.17 49.73 59.01" style="fill:#757575;stroke:#020202;stroke-miterlimit:10;stroke-width:0.5px"/><rect x="52.02" y="15.14" width="4.01" height="5.08" style="fill:#bcbcbc;stroke:#020202;stroke-miterlimit:10;stroke-width:0.5px"/><polygon points="53.78 13.65 52.02 15.14 56.03 15.14 57.65 13.65 53.78 13.65" style="fill:#939393;stroke:#020202;stroke-miterlimit:10;stroke-width:0.5px"/><polygon points="56.03 20.22 57.65 18.8 57.65 13.65 56.03 15.14 56.03 20.22" style="fill:#dd3a3a;stroke:#000;stroke-miterlimit:10;stroke-width:0.5px"/><rect x="51.98" y="48.37" width="4.01" height="5.08" style="fill:#bcbcbc;stroke:#020202;stroke-miterlimit:10;stroke-width:0.5px"/><polygon points="53.75 46.87 51.98 48.37 55.99 48.37 57.61 46.87 53.75 46.87" style="fill:#939393;stroke:#020202;stroke-miterlimit:10;stroke-width:0.5px"/><polygon points="55.99 53.45 57.61 52.03 57.61 46.87 55.99 48.37 55.99 53.45" style="fill:#3576f9;stroke:#000;stroke-miterlimit:10;stroke-width:0.5px"/><text transform="translate(19.96 39.19)" style="font-size:10.179280281066895px;font-family:PingFangSC-Medium-GBpc-EUC-H, PingFang SC">SOC</text></svg>