<svg id="图层_1" data-name="图层 1" xmlns="http://www.w3.org/2000/svg" xmlns:xlink="http://www.w3.org/1999/xlink" viewBox="0 0 67.1 67.1"><defs><linearGradient id="未命名的渐变_59" x1="7.18" y1="33.22" x2="61.19" y2="33.22" gradientUnits="userSpaceOnUse"><stop offset="0" stop-color="#273129"/><stop offset="0.48" stop-color="#485e31"/><stop offset="0.99" stop-color="#2c392a"/></linearGradient></defs><rect x="0.5" y="0.5" width="66.1" height="66.1" rx="8.69" style="fill:#fff;stroke:#444;stroke-miterlimit:10"/><polygon points="58.69 46.66 58.69 39.2 13.94 39.2 13.94 46.66 12.27 46.66 12.27 39.2 7.18 39.2 7.18 27.24 12.27 27.24 12.27 19.79 13.94 19.79 13.94 27.24 58.69 27.24 58.69 19.79 60.36 19.79 60.36 27.24 61.19 27.24 61.19 39.2 60.36 39.2 60.36 46.66 58.69 46.66" style="fill:url(#未命名的渐变_59)"/><path d="M60.24,19.92v7.45h.83V39.08h-.83v7.45H58.82V39.08h-45v7.45H12.39V39.08H7.3V27.37h5.09V19.92h1.42v7.45h45V19.92h1.42m.25-.25H58.57v7.45H14.06V19.67H12.14v7.45H7.05V39.33h5.09v7.45h1.92V39.33H58.57v7.45h1.92V39.33h.83V27.12h-.83V19.67Z"/><rect x="11.56" y="29.11" width="7.45" height="8.22" style="fill:#fff"/><rect x="21.25" y="29.11" width="7.45" height="8.22" style="fill:#fff"/><rect x="30.93" y="29.11" width="7.45" height="8.22" style="fill:#fff"/><rect x="40.61" y="29.11" width="7.45" height="8.22" style="fill:#fff"/><rect x="50.3" y="29.11" width="7.45" height="8.22" style="fill:#fff"/><rect x="11.56" y="18.84" width="3.03" height="1.07" style="fill:#020202"/><rect x="15.7" y="26.47" width="3.03" height="1.07" style="fill:#020202"/><rect x="23.02" y="26.47" width="3.03" height="1.07" style="fill:#020202"/><rect x="30.34" y="26.47" width="3.03" height="1.07" style="fill:#020202"/><rect x="37.66" y="26.47" width="3.03" height="1.07" style="fill:#020202"/><rect x="44.98" y="26.47" width="3.03" height="1.07" style="fill:#020202"/><rect x="52.3" y="26.47" width="3.03" height="1.07" style="fill:#020202"/><rect x="15.7" y="38.74" width="3.03" height="1.07" style="fill:#020202"/><rect x="23.02" y="38.74" width="3.03" height="1.07" style="fill:#020202"/><rect x="30.34" y="38.74" width="3.03" height="1.07" style="fill:#020202"/><rect x="37.66" y="38.74" width="3.03" height="1.07" style="fill:#020202"/><rect x="44.98" y="38.74" width="3.03" height="1.07" style="fill:#020202"/><rect x="52.3" y="38.74" width="3.03" height="1.07" style="fill:#020202"/><rect x="11.56" y="45.99" width="3.03" height="1.07" style="fill:#020202"/><rect x="58.03" y="19.11" width="3.03" height="1.07" style="fill:#020202"/><rect x="58.03" y="46.26" width="3.03" height="1.07" style="fill:#020202"/></svg>