<svg id="图层_1" data-name="图层 1" xmlns="http://www.w3.org/2000/svg" viewBox="0 0 67.1 67.1"><rect x="0.5" y="0.5" width="66.1" height="66.1" rx="8.69" style="fill:#fff;stroke:#444;stroke-miterlimit:10"/><ellipse cx="34.6" cy="31.74" rx="11.1" ry="8.7" style="fill:#bcbcbc;stroke:#020202;stroke-miterlimit:10"/><ellipse cx="34.6" cy="31.74" rx="20.12" ry="12.47" style="fill:none;stroke:#606060;stroke-miterlimit:10;stroke-width:0.25px"/><ellipse cx="34.6" cy="31.74" rx="27.16" ry="16.84" style="fill:none;stroke:#606060;stroke-miterlimit:10;stroke-width:0.25px"/><path d="M23,14.9s0,5.69,2.36,9" style="fill:none;stroke:#020202;stroke-miterlimit:10;stroke-width:0.25px"/><polygon points="24.5 24.03 26.9 25.48 25.54 23.03 24.5 24.03" style="fill:#020202"/><path d="M14.49,17.63A18.74,18.74,0,0,0,21.65,28.3" style="fill:none;stroke:#020202;stroke-miterlimit:10;stroke-width:0.25px"/><polygon points="20.85 28.61 23.51 29.52 21.67 27.4 20.85 28.61" style="fill:#020202"/><path d="M23,47.75s0-5.69,2.36-9" style="fill:none;stroke:#020202;stroke-miterlimit:10;stroke-width:0.25px"/><polygon points="25.54 39.63 26.9 37.17 24.5 38.62 25.54 39.63" style="fill:#020202"/><path d="M14.49,45a18.74,18.74,0,0,1,7.16-10.67" style="fill:none;stroke:#020202;stroke-miterlimit:10;stroke-width:0.25px"/><polygon points="21.67 35.25 23.51 33.13 20.85 34.05 21.67 35.25" style="fill:#020202"/><path d="M46.42,14.9s0,5.69-2.36,9" style="fill:none;stroke:#020202;stroke-miterlimit:10;stroke-width:0.25px"/><polygon points="43.84 23.03 42.49 25.48 44.89 24.03 43.84 23.03" style="fill:#020202"/><path d="M54.9,17.63A18.73,18.73,0,0,1,47.73,28.3" style="fill:none;stroke:#020202;stroke-miterlimit:10;stroke-width:0.25px"/><polygon points="47.72 27.4 45.88 29.52 48.53 28.61 47.72 27.4" style="fill:#020202"/><path d="M46.42,47.75s0-5.69-2.36-9" style="fill:none;stroke:#020202;stroke-miterlimit:10;stroke-width:0.25px"/><polygon points="44.89 38.62 42.49 37.17 43.84 39.63 44.89 38.62" style="fill:#020202"/><path d="M54.9,45a18.73,18.73,0,0,0-7.17-10.67" style="fill:none;stroke:#020202;stroke-miterlimit:10;stroke-width:0.25px"/><polygon points="48.53 34.05 45.88 33.13 47.72 35.25 48.53 34.05" style="fill:#020202"/><line x1="34.6" y1="5.66" x2="34.6" y2="56.29" style="fill:none;stroke:#606060;stroke-miterlimit:10;stroke-width:0.25px;stroke-dasharray:2"/><path d="M35.87,9.74a6.85,6.85,0,0,1-1.33.12c-1.57,0-2.85-.46-2.85-1s1.28-1,2.85-1,2.85.47,2.85,1" style="fill:none;stroke:#606060;stroke-miterlimit:10;stroke-width:0.25px"/><polygon points="34.89 8.84 34.75 9.05 35.77 9.74 35.01 10.71 35.2 10.86 36.13 9.68 34.89 8.84" style="fill:#606060"/></svg>