<svg id="图层_1" data-name="图层 1" xmlns="http://www.w3.org/2000/svg" viewBox="0 0 67.1 67.1"><rect x="0.5" y="0.5" width="66.1" height="66.1" rx="8.69" style="fill:#fff;stroke:#444;stroke-miterlimit:10"/><path d="M60.43,20.45A3.47,3.47,0,0,1,58.65,23a14.34,14.34,0,0,1-2.84,1.45,37.61,37.61,0,0,1-6.14,1.73A81.55,81.55,0,0,1,37,27.64a100.49,100.49,0,0,1-12.75-.3,54.58,54.58,0,0,1-12.55-2.4,16.76,16.76,0,0,1-3-1.33,4.85,4.85,0,0,1-2.36-2.48,2.45,2.45,0,0,1,.2-1.88,4.55,4.55,0,0,1,1.16-1.33,11.9,11.9,0,0,1,2.87-1.63A49,49,0,0,1,23.14,13.5a95.44,95.44,0,0,1,12.76-.36,78,78,0,0,1,12.66,1.47l0,.09a95.79,95.79,0,0,0-12.65-.86,100.5,100.5,0,0,0-12.64.66A47.81,47.81,0,0,0,11,17.2a11.56,11.56,0,0,0-2.66,1.45c-.78.6-1.36,1.42-1.1,2.22a4.19,4.19,0,0,0,1.94,2A16.73,16.73,0,0,0,12,24.19a54.06,54.06,0,0,0,12.34,2.5A101.12,101.12,0,0,0,37,27.14,82.11,82.11,0,0,0,49.62,25.9a38.05,38.05,0,0,0,6.12-1.62,14.29,14.29,0,0,0,2.83-1.39,3.38,3.38,0,0,0,1.76-2.44Z" style="fill:#4abaff"/><path d="M54.49,28.1a2.71,2.71,0,0,1-1.38,2,11,11,0,0,1-2.22,1.13,29.29,29.29,0,0,1-4.78,1.36,63.92,63.92,0,0,1-9.86,1.15,80.26,80.26,0,0,1-9.93-.21,43.38,43.38,0,0,1-9.8-1.86,14.28,14.28,0,0,1-2.34-1,3.9,3.9,0,0,1-1.88-2,2,2,0,0,1,.17-1.54A3.7,3.7,0,0,1,13.39,26a9.83,9.83,0,0,1,2.26-1.29,36.2,36.2,0,0,1,9.78-2.17,67.11,67.11,0,0,1,19.81,1l0,.1A79.17,79.17,0,0,0,35.37,23a82.58,82.58,0,0,0-9.83.55c-1.63.19-3.25.43-4.84.77A27.17,27.17,0,0,0,16,25.67,8.58,8.58,0,0,0,14,26.78c-.59.46-1,1-.82,1.62a3.11,3.11,0,0,0,1.46,1.51,12.28,12.28,0,0,0,2.17,1,42.33,42.33,0,0,0,9.59,2,79.13,79.13,0,0,0,9.86.36,63.4,63.4,0,0,0,9.82-.94,30,30,0,0,0,4.76-1.25A11,11,0,0,0,53,30a2.55,2.55,0,0,0,1.37-1.88Z" style="fill:#4abaff"/><path d="M49.24,35.75a2,2,0,0,1-1.05,1.51,8.1,8.1,0,0,1-1.65.86,21.49,21.49,0,0,1-3.58,1,47,47,0,0,1-7.39.88,56,56,0,0,1-7.44-.14,31.54,31.54,0,0,1-7.36-1.38A10.54,10.54,0,0,1,19,37.74a3.1,3.1,0,0,1-1.45-1.55A1.58,1.58,0,0,1,17.68,35a2.69,2.69,0,0,1,.71-.84,7.49,7.49,0,0,1,1.72-1,26.58,26.58,0,0,1,7.35-1.64,48.58,48.58,0,0,1,14.84.83v.09a65.85,65.85,0,0,0-14.72.07A30.94,30.94,0,0,0,20.49,34a6.6,6.6,0,0,0-1.51.81c-.42.34-.69.73-.58,1.09a2.35,2.35,0,0,0,1,1.07,9.75,9.75,0,0,0,1.6.75,30.71,30.71,0,0,0,7.15,1.48,54.92,54.92,0,0,0,7.37.29,46.38,46.38,0,0,0,7.34-.68,22,22,0,0,0,3.57-.91,8.62,8.62,0,0,0,1.64-.81,1.9,1.9,0,0,0,1-1.38Z" style="fill:#4abaff"/><path d="M44.83,43.39a1.44,1.44,0,0,1-.75,1.1,6.21,6.21,0,0,1-1.19.64,16.55,16.55,0,0,1-2.58.75,33.68,33.68,0,0,1-5.3.66,39.94,39.94,0,0,1-5.36-.08,22.34,22.34,0,0,1-5.32-1A7.2,7.2,0,0,1,23,44.92a2.24,2.24,0,0,1-1.1-1.18,1.21,1.21,0,0,1,.1-1,2.08,2.08,0,0,1,.54-.65,5.32,5.32,0,0,1,1.27-.74,19.06,19.06,0,0,1,5.31-1.19,33.87,33.87,0,0,1,10.68.72l0,.1a50.24,50.24,0,0,0-10.55.18,22.08,22.08,0,0,0-5,1.11,4.6,4.6,0,0,0-1.06.55c-.29.24-.43.46-.38.64s.36.5.69.71a6.19,6.19,0,0,0,1.13.53,21.74,21.74,0,0,0,5.1,1.08A38.8,38.8,0,0,0,35,46a33.29,33.29,0,0,0,5.27-.46,15.22,15.22,0,0,0,2.56-.64A6.33,6.33,0,0,0,44,44.37a1.34,1.34,0,0,0,.74-1Z" style="fill:#4abaff"/><path d="M41.27,48a1,1,0,0,1-.52.77,3.75,3.75,0,0,1-.81.44,10.16,10.16,0,0,1-1.76.53,23.46,23.46,0,0,1-3.63.49,28.09,28.09,0,0,1-3.67,0,16.17,16.17,0,0,1-3.67-.65,5.83,5.83,0,0,1-.9-.39,1.71,1.71,0,0,1-.83-.88,1,1,0,0,1,.08-.77A1.6,1.6,0,0,1,26,47a4.35,4.35,0,0,1,.89-.53,12.7,12.7,0,0,1,3.68-.82,21.14,21.14,0,0,1,7.31.63l0,.1a39,39,0,0,0-7.18.26,16,16,0,0,0-3.4.75,2.48,2.48,0,0,0-.69.35c-.19.15-.23.24-.22.28s.19.27.4.4a5.23,5.23,0,0,0,.75.37,21.43,21.43,0,0,0,7,.93,22.67,22.67,0,0,0,3.59-.28A11.73,11.73,0,0,0,39.87,49a4.87,4.87,0,0,0,.8-.38.93.93,0,0,0,.5-.65Z" style="fill:#4abaff"/><path d="M37.12,51c0,.36-.38.48-.62.6a4.86,4.86,0,0,1-.81.28A11.78,11.78,0,0,1,34,52.2,10.1,10.1,0,0,1,30.57,52a2.42,2.42,0,0,1-.46-.18,1,1,0,0,1-.49-.53.71.71,0,0,1,.05-.54.9.9,0,0,1,.24-.31,1.87,1.87,0,0,1,.47-.29,5,5,0,0,1,1.76-.41,8.65,8.65,0,0,1,3.39.54l0,.1c-1.15.19-2.21.15-3.26.36a10.26,10.26,0,0,0-1.49.32,1.35,1.35,0,0,0-.26.11c-.06.05,0,0,0-.14s0,0,.07.06a2.11,2.11,0,0,0,.3.16,9.92,9.92,0,0,0,3.16.5,9.89,9.89,0,0,0,1.63-.08,4.36,4.36,0,0,0,.8-.16c.24-.08.54-.19.59-.42Z" style="fill:#4abaff"/></svg>