<svg id="图层_1" data-name="图层 1" xmlns="http://www.w3.org/2000/svg" viewBox="0 0 67.1 67.1"><rect x="0.5" y="0.5" width="66.1" height="66.1" rx="8.69" style="fill:#fff;stroke:#444;stroke-miterlimit:10"/><path d="M60,45.68l.88-5.59-3-.47a13.64,13.64,0,0,0-1.16-4.8L59.2,33l-3.33-4.57-2.46,1.8a13.6,13.6,0,0,0-4.22-2.59l.48-3-5.59-.88-.47,3A13.22,13.22,0,0,0,38.81,28L37,25.48l-4.57,3.33,1.8,2.46a13.6,13.6,0,0,0-2.59,4.22l-3-.47-.88,5.58,3,.47a13.32,13.32,0,0,0,1.16,4.81l-2.47,1.79,3.33,4.57,2.46-1.79A13.57,13.57,0,0,0,39.48,53L39,56l5.58.88.47-3a13.74,13.74,0,0,0,4.81-1.16l1.79,2.46,4.57-3.33-1.79-2.46A13.57,13.57,0,0,0,57,45.2ZM43.24,47.34a7.08,7.08,0,1,1,8.09-5.89A7.08,7.08,0,0,1,43.24,47.34Z" style="fill:#bcbcbc;stroke:#020202;stroke-miterlimit:10"/><path d="M33.45,25.22l-.52-4-2.16.28A9.64,9.64,0,0,0,29,18.43l1.33-1.72-3.19-2.46L25.82,16a9.44,9.44,0,0,0-3.41-.92l-.28-2.16-4,.52.28,2.15a9.59,9.59,0,0,0-3.06,1.76L13.62,16l-2.46,3.2,1.72,1.33A9.58,9.58,0,0,0,12,23.93L9.8,24.2l.52,4,2.15-.28A9.78,9.78,0,0,0,14.23,31L12.9,32.71l3.2,2.47,1.33-1.73a9.6,9.6,0,0,0,3.41.93l.28,2.16,4-.52-.28-2.16A9.59,9.59,0,0,0,27.9,32.1l1.73,1.33,2.46-3.19-1.72-1.33a9.92,9.92,0,0,0,.92-3.41ZM22.38,30.55A5.89,5.89,0,1,1,27.46,24,5.89,5.89,0,0,1,22.38,30.55Z" style="fill:#6b6b6b;stroke:#020202;stroke-miterlimit:10;stroke-width:0.5px"/></svg>